{"accessors":[{"bufferView":0,"byteOffset":0,"componentType":5126,"count":237,"max":[0.0596751348825116,0.06350495211147082,0.015000000000000041],"min":[0.0,0.011534179881064604,-0.015000000000000019],"type":"VEC3"},{"bufferView":0,"byteOffset":2844,"componentType":5126,"count":52,"max":[1.4210854715202005e-17,0.06350495211147082,0.014999999999999995],"min":[0.0,0.03372368588852919,-0.015000000000000007],"type":"VEC3"},{"bufferView":0,"byteOffset":3468,"componentType":5126,"count":52,"max":[0.0596751348825116,0.021719972823055004,0.015000000000000041],"min":[0.03168989877515274,0.011534179881064604,-0.014999999999999953],"type":"VEC3"},{"bufferView":0,"byteOffset":4092,"componentType":5126,"count":54,"max":[1.4210854715202005e-17,0.06126546870104528,0.012700000000000012],"min":[-0.07500000000000001,0.036050663298954708,-0.012700000000000019],"type":"VEC3"},{"bufferView":0,"byteOffset":4740,"componentType":5126,"count":54,"max":[0.07452624125932926,0.020901075905637415,0.012700000000000057],"min":[0.03373106752214862,-0.03470752649120983,-0.012700000000000003],"type":"VEC3"},{"bufferView":0,"byteOffset":5388,"componentType":5126,"count":26,"max":[-0.07499999999999999,0.06126546870104528,0.012700000000000012],"min":[-0.07500000000000001,0.036050663298954708,-0.012700000000000019],"type":"VEC3"},{"bufferView":0,"byteOffset":5700,"componentType":5126,"count":26,"max":[0.07452624125932926,-0.026083555133657966,0.012700000000000054],"min":[0.050832074688432069,-0.03470752649120983,-0.012699999999999969],"type":"VEC3"},{"bufferView":0,"byteOffset":6012,"componentType":5126,"count":58,"max":[0.025,0.1,0.025],"min":[-0.025,0.0,-0.025],"type":"VEC3"},{"bufferView":0,"byteOffset":6708,"componentType":5126,"count":28,"max":[0.025,0.0,0.025],"min":[-0.025,0.0,-0.025],"type":"VEC3"},{"bufferView":0,"byteOffset":7044,"componentType":5126,"count":28,"max":[0.025,0.1,0.025],"min":[-0.025,0.1,-0.025],"type":"VEC3"},{"bufferView":1,"byteOffset":0,"componentType":5126,"count":237,"type":"VEC3"},{"bufferView":1,"byteOffset":2844,"componentType":5126,"count":52,"type":"VEC3"},{"bufferView":1,"byteOffset":3468,"componentType":5126,"count":52,"type":"VEC3"},{"bufferView":1,"byteOffset":4092,"componentType":5126,"count":54,"type":"VEC3"},{"bufferView":1,"byteOffset":4740,"componentType":5126,"count":54,"type":"VEC3"},{"bufferView":1,"byteOffset":5388,"componentType":5126,"count":26,"type":"VEC3"},{"bufferView":1,"byteOffset":5700,"componentType":5126,"count":26,"type":"VEC3"},{"bufferView":1,"byteOffset":6012,"componentType":5126,"count":58,"type":"VEC3"},{"bufferView":1,"byteOffset":6708,"componentType":5126,"count":28,"type":"VEC3"},{"bufferView":1,"byteOffset":7044,"componentType":5126,"count":28,"type":"VEC3"},{"bufferView":2,"byteOffset":0,"componentType":5123,"count":1218,"type":"SCALAR"},{"bufferView":2,"byteOffset":2436,"componentType":5123,"count":156,"type":"SCALAR"},{"bufferView":2,"byteOffset":2748,"componentType":5123,"count":156,"type":"SCALAR"},{"bufferView":2,"byteOffset":3060,"componentType":5123,"count":156,"type":"SCALAR"},{"bufferView":2,"byteOffset":3372,"componentType":5123,"count":156,"type":"SCALAR"},{"bufferView":2,"byteOffset":3684,"componentType":5123,"count":72,"type":"SCALAR"},{"bufferView":2,"byteOffset":3828,"componentType":5123,"count":72,"type":"SCALAR"},{"bufferView":2,"byteOffset":3972,"componentType":5123,"count":168,"type":"SCALAR"},{"bufferView":2,"byteOffset":4308,"componentType":5123,"count":78,"type":"SCALAR"},{"bufferView":2,"byteOffset":4464,"componentType":5123,"count":78,"type":"SCALAR"}],"asset":{"generator":"Open CASCADE Technology 7.6 [dev.opencascade.org]","version":"2.0"},"bufferViews":[{"buffer":0,"byteLength":7380,"byteOffset":0,"byteStride":12,"target":34962},{"buffer":0,"byteLength":7380,"byteOffset":7380,"byteStride":12,"target":34962},{"buffer":0,"byteLength":4620,"byteOffset":14760,"target":34963}],"buffers":[{"byteLength":19380,"uri":"ControlHandleBar.bin"}],"materials":[{"name":"mat_0","pbrMetallicRoughness":{"baseColorFactor":[0.1441284716129303,0.1441284716129303,0.1441284716129303,1.0]},"doubleSided":true},{"name":"mat_1","pbrMetallicRoughness":{"baseColorFactor":[0.6038273572921753,0.6038273572921753,0.6038273572921753,1.0]},"doubleSided":true}],"meshes":[{"name":"ControlHandle_Left","primitives":[{"attributes":{"NORMAL":10,"POSITION":0},"indices":20,"material":0,"mode":4},{"attributes":{"NORMAL":11,"POSITION":1},"indices":21,"material":0,"mode":4},{"attributes":{"NORMAL":12,"POSITION":2},"indices":22,"material":0,"mode":4},{"attributes":{"NORMAL":13,"POSITION":3},"indices":23,"material":0,"mode":4},{"attributes":{"NORMAL":14,"POSITION":4},"indices":24,"material":0,"mode":4},{"attributes":{"NORMAL":15,"POSITION":5},"indices":25,"material":0,"mode":4},{"attributes":{"NORMAL":16,"POSITION":6},"indices":26,"material":0,"mode":4}]},{"name":"ControlHandleAxle_Left","primitives":[{"attributes":{"NORMAL":17,"POSITION":7},"indices":27,"material":1,"mode":4},{"attributes":{"NORMAL":18,"POSITION":8},"indices":28,"material":1,"mode":4},{"attributes":{"NORMAL":19,"POSITION":9},"indices":29,"material":1,"mode":4}]}],"nodes":[{"children":[1,2],"name":"ControlHandleBar_Left"},{"translation":[0.0755,0.03869999999999999,0.000599999999999998],"mesh":0,"name":"ControlHandle_Left"},{"mesh":1,"name":"ControlHandleAxle_Left"}],"scene":0,"scenes":[{"nodes":[0]}]}