{"accessors":[{"bufferView":0,"byteOffset":0,"componentType":5126,"count":22,"max":[0.125,0.0625,0.0],"min":[0.10825317547305483,-0.06249999999999996,-0.015000000000000057],"type":"VEC3"},{"bufferView":0,"byteOffset":264,"componentType":5126,"count":4,"max":[0.17825317547305484,0.0625,0.0],"min":[0.10825317547305483,0.06249999999999999,-0.014999999999999944],"type":"VEC3"},{"bufferView":0,"byteOffset":312,"componentType":5126,"count":16,"max":[0.20325317547305483,0.06249999999999999,0.0],"min":[0.17825317547305484,0.03749999999999999,-0.015],"type":"VEC3"},{"bufferView":0,"byteOffset":504,"componentType":5126,"count":4,"max":[0.20325317547305483,0.03749999999999999,0.0],"min":[0.20325317547305483,-0.0375,-0.015],"type":"VEC3"},{"bufferView":0,"byteOffset":552,"componentType":5126,"count":16,"max":[0.20325317547305483,-0.0375,0.0],"min":[0.17825317547305484,-0.06249999999999997,-0.015000000000000057],"type":"VEC3"},{"bufferView":0,"byteOffset":744,"componentType":5126,"count":4,"max":[0.17825317547305484,-0.06249999999999996,0.0],"min":[0.10825317547305484,-0.06249999999999997,-0.015000000000000057],"type":"VEC3"},{"bufferView":0,"byteOffset":792,"componentType":5126,"count":16,"max":[0.19075317547305482,-0.03750000045230201,0.0],"min":[0.17825317547305484,-0.049999999999999999,-0.015],"type":"VEC3"},{"bufferView":0,"byteOffset":984,"componentType":5126,"count":4,"max":[0.19075317547305482,0.03749999999999999,0.0],"min":[0.19075317547305482,-0.03750000045230201,-0.015],"type":"VEC3"},{"bufferView":0,"byteOffset":1032,"componentType":5126,"count":16,"max":[0.19075317547305482,0.049999999999999999,0.0],"min":[0.17825317547305484,0.03749999999999999,-0.015],"type":"VEC3"},{"bufferView":0,"byteOffset":1224,"componentType":5126,"count":4,"max":[0.17825317547305484,0.05,0.0],"min":[0.1280499480967482,0.049999999999999999,-0.015],"type":"VEC3"},{"bufferView":0,"byteOffset":1272,"componentType":5126,"count":16,"max":[0.13727124803166067,0.05,0.0],"min":[0.1280499480967482,-0.049999999999999978,-0.015],"type":"VEC3"},{"bufferView":0,"byteOffset":1464,"componentType":5126,"count":4,"max":[0.17825317547305484,-0.049999999999999978,0.0],"min":[0.12804994809674823,-0.049999999999999999,-0.015],"type":"VEC3"},{"bufferView":0,"byteOffset":1512,"componentType":5126,"count":51,"max":[0.20325317547305483,0.0625,0.0],"min":[0.10825317547305483,-0.06249999999999997,0.0],"type":"VEC3"},{"bufferView":0,"byteOffset":2124,"componentType":5126,"count":51,"max":[0.20325317547305483,0.0625,-0.014999999999999944],"min":[0.10825317547305483,-0.06249999999999997,-0.015000000000000057],"type":"VEC3"},{"bufferView":1,"byteOffset":0,"componentType":5126,"count":22,"type":"VEC3"},{"bufferView":1,"byteOffset":264,"componentType":5126,"count":4,"type":"VEC3"},{"bufferView":1,"byteOffset":312,"componentType":5126,"count":16,"type":"VEC3"},{"bufferView":1,"byteOffset":504,"componentType":5126,"count":4,"type":"VEC3"},{"bufferView":1,"byteOffset":552,"componentType":5126,"count":16,"type":"VEC3"},{"bufferView":1,"byteOffset":744,"componentType":5126,"count":4,"type":"VEC3"},{"bufferView":1,"byteOffset":792,"componentType":5126,"count":16,"type":"VEC3"},{"bufferView":1,"byteOffset":984,"componentType":5126,"count":4,"type":"VEC3"},{"bufferView":1,"byteOffset":1032,"componentType":5126,"count":16,"type":"VEC3"},{"bufferView":1,"byteOffset":1224,"componentType":5126,"count":4,"type":"VEC3"},{"bufferView":1,"byteOffset":1272,"componentType":5126,"count":16,"type":"VEC3"},{"bufferView":1,"byteOffset":1464,"componentType":5126,"count":4,"type":"VEC3"},{"bufferView":1,"byteOffset":1512,"componentType":5126,"count":51,"type":"VEC3"},{"bufferView":1,"byteOffset":2124,"componentType":5126,"count":51,"type":"VEC3"},{"bufferView":2,"byteOffset":0,"componentType":5123,"count":60,"type":"SCALAR"},{"bufferView":2,"byteOffset":120,"componentType":5123,"count":6,"type":"SCALAR"},{"bufferView":2,"byteOffset":132,"componentType":5123,"count":42,"type":"SCALAR"},{"bufferView":2,"byteOffset":216,"componentType":5123,"count":6,"type":"SCALAR"},{"bufferView":2,"byteOffset":228,"componentType":5123,"count":42,"type":"SCALAR"},{"bufferView":2,"byteOffset":312,"componentType":5123,"count":6,"type":"SCALAR"},{"bufferView":2,"byteOffset":324,"componentType":5123,"count":42,"type":"SCALAR"},{"bufferView":2,"byteOffset":408,"componentType":5123,"count":6,"type":"SCALAR"},{"bufferView":2,"byteOffset":420,"componentType":5123,"count":42,"type":"SCALAR"},{"bufferView":2,"byteOffset":504,"componentType":5123,"count":6,"type":"SCALAR"},{"bufferView":2,"byteOffset":516,"componentType":5123,"count":42,"type":"SCALAR"},{"bufferView":2,"byteOffset":600,"componentType":5123,"count":6,"type":"SCALAR"},{"bufferView":2,"byteOffset":612,"componentType":5123,"count":153,"type":"SCALAR"},{"bufferView":2,"byteOffset":920,"componentType":5123,"count":153,"type":"SCALAR"}],"asset":{"generator":"Open CASCADE Technology 7.6 [dev.opencascade.org]","version":"2.0"},"bufferViews":[{"buffer":0,"byteLength":2736,"byteOffset":0,"byteStride":12,"target":34962},{"buffer":0,"byteLength":2736,"byteOffset":2736,"byteStride":12,"target":34962},{"buffer":0,"byteLength":1228,"byteOffset":5472,"target":34963}],"buffers":[{"byteLength":6700,"uri":"Handle.bin"}],"materials":[{"name":"mat_0","pbrMetallicRoughness":{"baseColorFactor":[0.07818742841482163,0.07818742841482163,0.07818742841482163,1.0]},"doubleSided":true}],"meshes":[{"name":"Handle_Left","primitives":[{"attributes":{"NORMAL":14,"POSITION":0},"indices":28,"material":0,"mode":4},{"attributes":{"NORMAL":15,"POSITION":1},"indices":29,"material":0,"mode":4},{"attributes":{"NORMAL":16,"POSITION":2},"indices":30,"material":0,"mode":4},{"attributes":{"NORMAL":17,"POSITION":3},"indices":31,"material":0,"mode":4},{"attributes":{"NORMAL":18,"POSITION":4},"indices":32,"material":0,"mode":4},{"attributes":{"NORMAL":19,"POSITION":5},"indices":33,"material":0,"mode":4},{"attributes":{"NORMAL":20,"POSITION":6},"indices":34,"material":0,"mode":4},{"attributes":{"NORMAL":21,"POSITION":7},"indices":35,"material":0,"mode":4},{"attributes":{"NORMAL":22,"POSITION":8},"indices":36,"material":0,"mode":4},{"attributes":{"NORMAL":23,"POSITION":9},"indices":37,"material":0,"mode":4},{"attributes":{"NORMAL":24,"POSITION":10},"indices":38,"material":0,"mode":4},{"attributes":{"NORMAL":25,"POSITION":11},"indices":39,"material":0,"mode":4},{"attributes":{"NORMAL":26,"POSITION":12},"indices":40,"material":0,"mode":4},{"attributes":{"NORMAL":27,"POSITION":13},"indices":41,"material":0,"mode":4}]}],"nodes":[{"mesh":0,"name":"Handle_Left"}],"scene":0,"scenes":[{"nodes":[0]}]}