{"accessors":[{"bufferView":0,"byteOffset":0,"componentType":5126,"count":8,"max":[0.12500000000000006,0.06249999999999988,0.35000000000000017],"min":[0.10825317547305498,0.0,-0.35000000000000017],"type":"VEC3"},{"bufferView":0,"byteOffset":96,"componentType":5126,"count":4,"max":[0.10825317547305498,0.06250000000000003,0.35000000000000017],"min":[-0.1082531754730549,0.06249999999999988,-0.35000000000000017],"type":"VEC3"},{"bufferView":0,"byteOffset":144,"componentType":5126,"count":8,"max":[-0.1082531754730549,0.06250000000000003,0.35000000000000017],"min":[-0.12500000000000006,1.5e-17,-0.35000000000000017],"type":"VEC3"},{"bufferView":0,"byteOffset":240,"componentType":5126,"count":4,"max":[0.12500000000000006,1.5e-17,0.35000000000000017],"min":[-0.12500000000000006,0.0,-0.35000000000000017],"type":"VEC3"},{"bufferView":0,"byteOffset":288,"componentType":5126,"count":8,"max":[0.12500000000000006,0.0625,-0.34999999999999989],"min":[-0.12500000000000006,0.0,-0.35000000000000017],"type":"VEC3"},{"bufferView":0,"byteOffset":384,"componentType":5126,"count":8,"max":[0.12500000000000006,0.0625,0.35000000000000017],"min":[-0.12500000000000006,0.0,0.34999999999999989],"type":"VEC3"},{"bufferView":1,"byteOffset":0,"componentType":5126,"count":8,"type":"VEC3"},{"bufferView":1,"byteOffset":96,"componentType":5126,"count":4,"type":"VEC3"},{"bufferView":1,"byteOffset":144,"componentType":5126,"count":8,"type":"VEC3"},{"bufferView":1,"byteOffset":240,"componentType":5126,"count":4,"type":"VEC3"},{"bufferView":1,"byteOffset":288,"componentType":5126,"count":8,"type":"VEC3"},{"bufferView":1,"byteOffset":384,"componentType":5126,"count":8,"type":"VEC3"},{"bufferView":2,"byteOffset":0,"componentType":5123,"count":18,"type":"SCALAR"},{"bufferView":2,"byteOffset":36,"componentType":5123,"count":6,"type":"SCALAR"},{"bufferView":2,"byteOffset":48,"componentType":5123,"count":18,"type":"SCALAR"},{"bufferView":2,"byteOffset":84,"componentType":5123,"count":6,"type":"SCALAR"},{"bufferView":2,"byteOffset":96,"componentType":5123,"count":18,"type":"SCALAR"},{"bufferView":2,"byteOffset":132,"componentType":5123,"count":18,"type":"SCALAR"}],"asset":{"generator":"Open CASCADE Technology 7.6 [dev.opencascade.org]","version":"2.0"},"bufferViews":[{"buffer":0,"byteLength":480,"byteOffset":0,"byteStride":12,"target":34962},{"buffer":0,"byteLength":480,"byteOffset":480,"byteStride":12,"target":34962},{"buffer":0,"byteLength":168,"byteOffset":960,"target":34963}],"buffers":[{"byteLength":1128,"uri":"PolluxMidBody_Upper.bin"}],"materials":[{"name":"mat_0","pbrMetallicRoughness":{"baseColorFactor":[1.0,0.4019778072834015,0.0,1.0]},"doubleSided":true}],"meshes":[{"name":"MidBody_Upper","primitives":[{"attributes":{"NORMAL":6,"POSITION":0},"indices":12,"material":0,"mode":4},{"attributes":{"NORMAL":7,"POSITION":1},"indices":13,"material":0,"mode":4},{"attributes":{"NORMAL":8,"POSITION":2},"indices":14,"material":0,"mode":4},{"attributes":{"NORMAL":9,"POSITION":3},"indices":15,"material":0,"mode":4},{"attributes":{"NORMAL":10,"POSITION":4},"indices":16,"material":0,"mode":4},{"attributes":{"NORMAL":11,"POSITION":5},"indices":17,"material":0,"mode":4}]}],"nodes":[{"mesh":0,"name":"MidBody_Upper"}],"scene":0,"scenes":[{"nodes":[0]}]}