{"accessors":[{"bufferView":0,"byteOffset":0,"componentType":5126,"count":4,"max":[-5.0,3.75,10.0],"min":[-5.0,0.0,-10.0],"type":"VEC3"},{"bufferView":0,"byteOffset":48,"componentType":5126,"count":4,"max":[5.0,3.75,10.0],"min":[-5.0,0.0,10.0],"type":"VEC3"},{"bufferView":0,"byteOffset":96,"componentType":5126,"count":4,"max":[5.0,3.75,10.0],"min":[5.0,0.0,-10.0],"type":"VEC3"},{"bufferView":0,"byteOffset":144,"componentType":5126,"count":4,"max":[5.0,3.75,-10.0],"min":[-5.0,0.0,-10.0],"type":"VEC3"},{"bufferView":0,"byteOffset":192,"componentType":5126,"count":4,"max":[5.0,0.0,10.0],"min":[-5.0,0.0,-10.0],"type":"VEC3"},{"bufferView":0,"byteOffset":240,"componentType":5126,"count":4,"max":[5.0,3.75,10.0],"min":[-5.0,3.75,-10.0],"type":"VEC3"},{"bufferView":0,"byteOffset":288,"componentType":5126,"count":4,"max":[-7.5,5.0,12.5],"min":[-7.5,0.0,-12.5],"type":"VEC3"},{"bufferView":0,"byteOffset":336,"componentType":5126,"count":4,"max":[7.5,5.0,-12.5],"min":[-7.5,0.0,-12.5],"type":"VEC3"},{"bufferView":0,"byteOffset":384,"componentType":5126,"count":4,"max":[7.5,5.0,12.5],"min":[-7.5,0.0,12.5],"type":"VEC3"},{"bufferView":0,"byteOffset":432,"componentType":5126,"count":4,"max":[7.5,0.0,12.5],"min":[-7.5,0.0,-12.5],"type":"VEC3"},{"bufferView":0,"byteOffset":480,"componentType":5126,"count":8,"max":[7.5,5.0,12.5],"min":[-7.5,5.0,-12.5],"type":"VEC3"},{"bufferView":0,"byteOffset":576,"componentType":5126,"count":4,"max":[7.5,5.0,12.5],"min":[7.5,0.0,-12.5],"type":"VEC3"},{"bufferView":0,"byteOffset":624,"componentType":5126,"count":4,"max":[-5.0,5.0,10.0],"min":[-5.0,1.0,-10.0],"type":"VEC3"},{"bufferView":0,"byteOffset":672,"componentType":5126,"count":4,"max":[5.0,5.0,10.0],"min":[-5.0,1.0,10.0],"type":"VEC3"},{"bufferView":0,"byteOffset":720,"componentType":5126,"count":4,"max":[5.0,5.0,10.0],"min":[5.0,1.0,-10.0],"type":"VEC3"},{"bufferView":0,"byteOffset":768,"componentType":5126,"count":4,"max":[5.0,5.0,-10.0],"min":[-5.0,1.0,-10.0],"type":"VEC3"},{"bufferView":0,"byteOffset":816,"componentType":5126,"count":4,"max":[5.0,1.0,10.0],"min":[-5.0,1.0,-10.0],"type":"VEC3"},{"bufferView":1,"byteOffset":0,"componentType":5126,"count":4,"type":"VEC3"},{"bufferView":1,"byteOffset":48,"componentType":5126,"count":4,"type":"VEC3"},{"bufferView":1,"byteOffset":96,"componentType":5126,"count":4,"type":"VEC3"},{"bufferView":1,"byteOffset":144,"componentType":5126,"count":4,"type":"VEC3"},{"bufferView":1,"byteOffset":192,"componentType":5126,"count":4,"type":"VEC3"},{"bufferView":1,"byteOffset":240,"componentType":5126,"count":4,"type":"VEC3"},{"bufferView":1,"byteOffset":288,"componentType":5126,"count":4,"type":"VEC3"},{"bufferView":1,"byteOffset":336,"componentType":5126,"count":4,"type":"VEC3"},{"bufferView":1,"byteOffset":384,"componentType":5126,"count":4,"type":"VEC3"},{"bufferView":1,"byteOffset":432,"componentType":5126,"count":4,"type":"VEC3"},{"bufferView":1,"byteOffset":480,"componentType":5126,"count":8,"type":"VEC3"},{"bufferView":1,"byteOffset":576,"componentType":5126,"count":4,"type":"VEC3"},{"bufferView":1,"byteOffset":624,"componentType":5126,"count":4,"type":"VEC3"},{"bufferView":1,"byteOffset":672,"componentType":5126,"count":4,"type":"VEC3"},{"bufferView":1,"byteOffset":720,"componentType":5126,"count":4,"type":"VEC3"},{"bufferView":1,"byteOffset":768,"componentType":5126,"count":4,"type":"VEC3"},{"bufferView":1,"byteOffset":816,"componentType":5126,"count":4,"type":"VEC3"},{"bufferView":2,"byteOffset":0,"componentType":5123,"count":6,"type":"SCALAR"},{"bufferView":2,"byteOffset":12,"componentType":5123,"count":6,"type":"SCALAR"},{"bufferView":2,"byteOffset":24,"componentType":5123,"count":6,"type":"SCALAR"},{"bufferView":2,"byteOffset":36,"componentType":5123,"count":6,"type":"SCALAR"},{"bufferView":2,"byteOffset":48,"componentType":5123,"count":6,"type":"SCALAR"},{"bufferView":2,"byteOffset":60,"componentType":5123,"count":6,"type":"SCALAR"},{"bufferView":2,"byteOffset":72,"componentType":5123,"count":6,"type":"SCALAR"},{"bufferView":2,"byteOffset":84,"componentType":5123,"count":6,"type":"SCALAR"},{"bufferView":2,"byteOffset":96,"componentType":5123,"count":6,"type":"SCALAR"},{"bufferView":2,"byteOffset":108,"componentType":5123,"count":6,"type":"SCALAR"},{"bufferView":2,"byteOffset":120,"componentType":5123,"count":24,"type":"SCALAR"},{"bufferView":2,"byteOffset":168,"componentType":5123,"count":6,"type":"SCALAR"},{"bufferView":2,"byteOffset":180,"componentType":5123,"count":6,"type":"SCALAR"},{"bufferView":2,"byteOffset":192,"componentType":5123,"count":6,"type":"SCALAR"},{"bufferView":2,"byteOffset":204,"componentType":5123,"count":6,"type":"SCALAR"},{"bufferView":2,"byteOffset":216,"componentType":5123,"count":6,"type":"SCALAR"},{"bufferView":2,"byteOffset":228,"componentType":5123,"count":6,"type":"SCALAR"}],"asset":{"generator":"Open CASCADE Technology 7.6 [dev.opencascade.org]","version":"2.0"},"bufferViews":[{"buffer":0,"byteLength":864,"byteOffset":0,"byteStride":12,"target":34962},{"buffer":0,"byteLength":864,"byteOffset":864,"byteStride":12,"target":34962},{"buffer":0,"byteLength":240,"byteOffset":1728,"target":34963}],"buffers":[{"byteLength":1968,"uri":"Pool.bin"}],"materials":[{"name":"mat_0","pbrMetallicRoughness":{"baseColorFactor":[0.0,0.4019778072834015,1.0,0.5],"metallicFactor":0.0},"doubleSided":true,"alphaMode":"BLEND"},{"name":"mat_1","pbrMetallicRoughness":{"baseColorFactor":[0.6038273572921753,0.6038273572921753,0.6038273572921753,1.0]},"doubleSided":true}],"meshes":[{"name":"Water","primitives":[{"attributes":{"NORMAL":17,"POSITION":0},"indices":34,"material":0,"mode":4},{"attributes":{"NORMAL":18,"POSITION":1},"indices":35,"material":0,"mode":4},{"attributes":{"NORMAL":19,"POSITION":2},"indices":36,"material":0,"mode":4},{"attributes":{"NORMAL":20,"POSITION":3},"indices":37,"material":0,"mode":4},{"attributes":{"NORMAL":21,"POSITION":4},"indices":38,"material":0,"mode":4},{"attributes":{"NORMAL":22,"POSITION":5},"indices":39,"material":0,"mode":4}]},{"name":"Ground","primitives":[{"attributes":{"NORMAL":23,"POSITION":6},"indices":40,"material":1,"mode":4},{"attributes":{"NORMAL":24,"POSITION":7},"indices":41,"material":1,"mode":4},{"attributes":{"NORMAL":25,"POSITION":8},"indices":42,"material":1,"mode":4},{"attributes":{"NORMAL":26,"POSITION":9},"indices":43,"material":1,"mode":4},{"attributes":{"NORMAL":27,"POSITION":10},"indices":44,"material":1,"mode":4},{"attributes":{"NORMAL":28,"POSITION":11},"indices":45,"material":1,"mode":4},{"attributes":{"NORMAL":29,"POSITION":12},"indices":46,"material":1,"mode":4},{"attributes":{"NORMAL":30,"POSITION":13},"indices":47,"material":1,"mode":4},{"attributes":{"NORMAL":31,"POSITION":14},"indices":48,"material":1,"mode":4},{"attributes":{"NORMAL":32,"POSITION":15},"indices":49,"material":1,"mode":4},{"attributes":{"NORMAL":33,"POSITION":16},"indices":50,"material":1,"mode":4}]}],"nodes":[{"children":[1,2],"name":"Pool"},{"mesh":0,"name":"Water"},{"mesh":1,"name":"Ground"}],"scene":0,"scenes":[{"nodes":[0]}]}