{"accessors":[{"bufferView":0,"byteOffset":0,"componentType":5126,"count":28,"max":[1.0658141036401503e-17,0.022500000000000004,0.022335949667206195],"min":[-0.025000000000000016,-0.022500000000000014,0.0],"type":"VEC3"},{"bufferView":0,"byteOffset":336,"componentType":5126,"count":4,"max":[9.592326932761353e-17,-0.022500000000000004,0.0],"min":[-0.024999999999999989,-0.022500000000000184,-0.25000000000000008],"type":"VEC3"},{"bufferView":0,"byteOffset":384,"componentType":5126,"count":28,"max":[9.592326932761353e-17,0.022499999999999837,-0.25000000000000008],"min":[-0.025000000000000069,-0.022500000000000184,-0.2723359496672063],"type":"VEC3"},{"bufferView":0,"byteOffset":720,"componentType":5126,"count":4,"max":[7.105427357601002e-17,0.022500000000000004,0.0],"min":[-0.025000000000000016,0.022499999999999827,-0.25000000000000008],"type":"VEC3"},{"bufferView":0,"byteOffset":768,"componentType":5126,"count":54,"max":[8.526512829121203e-17,0.004963544370490199,-0.2450000000000001],"min":[-0.025000000000000065,-0.004963544370490356,-0.25500000000000008],"type":"VEC3"},{"bufferView":0,"byteOffset":1416,"componentType":5126,"count":54,"max":[3.552713678800501e-18,0.004963544370490277,0.005],"min":[-0.02500000000000001,-0.004963544370490272,-0.005],"type":"VEC3"},{"bufferView":0,"byteOffset":2064,"componentType":5126,"count":80,"max":[9.592326932761353e-17,0.022500000000000004,0.022335949667206195],"min":[-6.394884621840903e-17,-0.022500000000000174,-0.2723359496672063],"type":"VEC3"},{"bufferView":0,"byteOffset":3024,"componentType":5126,"count":80,"max":[-0.024999999999999905,0.022499999999999993,0.0223359496672062],"min":[-0.025000000000000069,-0.022500000000000184,-0.2723359496672063],"type":"VEC3"},{"bufferView":1,"byteOffset":0,"componentType":5126,"count":28,"type":"VEC3"},{"bufferView":1,"byteOffset":336,"componentType":5126,"count":4,"type":"VEC3"},{"bufferView":1,"byteOffset":384,"componentType":5126,"count":28,"type":"VEC3"},{"bufferView":1,"byteOffset":720,"componentType":5126,"count":4,"type":"VEC3"},{"bufferView":1,"byteOffset":768,"componentType":5126,"count":54,"type":"VEC3"},{"bufferView":1,"byteOffset":1416,"componentType":5126,"count":54,"type":"VEC3"},{"bufferView":1,"byteOffset":2064,"componentType":5126,"count":80,"type":"VEC3"},{"bufferView":1,"byteOffset":3024,"componentType":5126,"count":80,"type":"VEC3"},{"bufferView":2,"byteOffset":0,"componentType":5123,"count":78,"type":"SCALAR"},{"bufferView":2,"byteOffset":156,"componentType":5123,"count":6,"type":"SCALAR"},{"bufferView":2,"byteOffset":168,"componentType":5123,"count":78,"type":"SCALAR"},{"bufferView":2,"byteOffset":324,"componentType":5123,"count":6,"type":"SCALAR"},{"bufferView":2,"byteOffset":336,"componentType":5123,"count":156,"type":"SCALAR"},{"bufferView":2,"byteOffset":648,"componentType":5123,"count":156,"type":"SCALAR"},{"bufferView":2,"byteOffset":960,"componentType":5123,"count":246,"type":"SCALAR"},{"bufferView":2,"byteOffset":1452,"componentType":5123,"count":246,"type":"SCALAR"}],"asset":{"generator":"Open CASCADE Technology 7.6 [dev.opencascade.org]","version":"2.0"},"bufferViews":[{"buffer":0,"byteLength":3984,"byteOffset":0,"byteStride":12,"target":34962},{"buffer":0,"byteLength":3984,"byteOffset":3984,"byteStride":12,"target":34962},{"buffer":0,"byteLength":1944,"byteOffset":7968,"target":34963}],"buffers":[{"byteLength":9912,"uri":"SensorBracketB.bin"}],"materials":[{"name":"mat_0","pbrMetallicRoughness":{"baseColorFactor":[0.6038273572921753,0.6038273572921753,0.6038273572921753,1.0]},"doubleSided":true}],"meshes":[{"name":"SensorBracketB","primitives":[{"attributes":{"NORMAL":8,"POSITION":0},"indices":16,"material":0,"mode":4},{"attributes":{"NORMAL":9,"POSITION":1},"indices":17,"material":0,"mode":4},{"attributes":{"NORMAL":10,"POSITION":2},"indices":18,"material":0,"mode":4},{"attributes":{"NORMAL":11,"POSITION":3},"indices":19,"material":0,"mode":4},{"attributes":{"NORMAL":12,"POSITION":4},"indices":20,"material":0,"mode":4},{"attributes":{"NORMAL":13,"POSITION":5},"indices":21,"material":0,"mode":4},{"attributes":{"NORMAL":14,"POSITION":6},"indices":22,"material":0,"mode":4},{"attributes":{"NORMAL":15,"POSITION":7},"indices":23,"material":0,"mode":4}]}],"nodes":[{"mesh":0,"name":"SensorBracketB"}],"scene":0,"scenes":[{"nodes":[0]}]}