{"accessors":[{"bufferView":0,"byteOffset":0,"componentType":5126,"count":28,"max":[1.9984014443252818e-17,0.02250000000000001,-0.000025502911938943385],"min":[-0.10000000000000009,-0.02250000000000006,-0.022361452579145174],"type":"VEC3"},{"bufferView":0,"byteOffset":336,"componentType":5126,"count":8,"max":[1.9984014443252818e-17,-0.022499999999999914,0.09997449708806113],"min":[-0.10000000000000005,-0.02250000000000006,-0.000025502911939021546],"type":"VEC3"},{"bufferView":0,"byteOffset":432,"componentType":5126,"count":8,"max":[-1.9984014443252818e-17,0.02250000000000011,0.09997449708806113],"min":[-0.10000000000000009,0.02249999999999996,-0.000025502911939049969],"type":"VEC3"},{"bufferView":0,"byteOffset":528,"componentType":5126,"count":54,"max":[7.505107646466059e-17,0.02250000000000011,0.12231044675526738],"min":[-5.2846615972157458e-17,-0.02250000000000001,-0.022361452579145174],"type":"VEC3"},{"bufferView":0,"byteOffset":1176,"componentType":5126,"count":54,"max":[-0.1,0.022500000000000059,0.12231044675526738],"min":[-0.10000000000000009,-0.022500000000000059,-0.022361452579145143],"type":"VEC3"},{"bufferView":0,"byteOffset":1824,"componentType":5126,"count":44,"max":[7.505107646466059e-17,0.02250000000000011,0.12231044675526738],"min":[-0.10000000000000009,-0.02249999999999996,0.09997449708806101],"type":"VEC3"},{"bufferView":0,"byteOffset":2352,"componentType":5126,"count":10,"max":[-0.09,0.02250000000000006,0.10011494799999997],"min":[-0.09000000000000007,-0.02250000000000003,0.029999999999999945],"type":"VEC3"},{"bufferView":0,"byteOffset":2472,"componentType":5126,"count":4,"max":[-0.009999999999999999,0.022500000000000035,0.03000000000000003],"min":[-0.09000000000000003,-0.02250000000000003,0.029999999999999945],"type":"VEC3"},{"bufferView":0,"byteOffset":2520,"componentType":5126,"count":10,"max":[-0.009999999999999999,0.0225000000000001,0.10011494800000002],"min":[-0.010000000000000053,-0.022499999999999983,0.029999999999999986],"type":"VEC3"},{"bufferView":0,"byteOffset":2640,"componentType":5126,"count":54,"max":[4.440892098500626e-18,0.004963544370490354,0.004999988000000031],"min":[-0.10000000000000008,-0.004963544370490272,-0.005000012000000083],"type":"VEC3"},{"bufferView":0,"byteOffset":3288,"componentType":5126,"count":4,"max":[-0.010000000000000021,0.022499561629981566,0.10011494800000002],"min":[-0.09000000000000007,-0.022499561629981528,0.10011494799999997],"type":"VEC3"},{"bufferView":1,"byteOffset":0,"componentType":5126,"count":28,"type":"VEC3"},{"bufferView":1,"byteOffset":336,"componentType":5126,"count":8,"type":"VEC3"},{"bufferView":1,"byteOffset":432,"componentType":5126,"count":8,"type":"VEC3"},{"bufferView":1,"byteOffset":528,"componentType":5126,"count":54,"type":"VEC3"},{"bufferView":1,"byteOffset":1176,"componentType":5126,"count":54,"type":"VEC3"},{"bufferView":1,"byteOffset":1824,"componentType":5126,"count":44,"type":"VEC3"},{"bufferView":1,"byteOffset":2352,"componentType":5126,"count":10,"type":"VEC3"},{"bufferView":1,"byteOffset":2472,"componentType":5126,"count":4,"type":"VEC3"},{"bufferView":1,"byteOffset":2520,"componentType":5126,"count":10,"type":"VEC3"},{"bufferView":1,"byteOffset":2640,"componentType":5126,"count":54,"type":"VEC3"},{"bufferView":1,"byteOffset":3288,"componentType":5126,"count":4,"type":"VEC3"},{"bufferView":2,"byteOffset":0,"componentType":5123,"count":78,"type":"SCALAR"},{"bufferView":2,"byteOffset":156,"componentType":5123,"count":18,"type":"SCALAR"},{"bufferView":2,"byteOffset":192,"componentType":5123,"count":18,"type":"SCALAR"},{"bufferView":2,"byteOffset":228,"componentType":5123,"count":162,"type":"SCALAR"},{"bufferView":2,"byteOffset":552,"componentType":5123,"count":162,"type":"SCALAR"},{"bufferView":2,"byteOffset":876,"componentType":5123,"count":126,"type":"SCALAR"},{"bufferView":2,"byteOffset":1128,"componentType":5123,"count":24,"type":"SCALAR"},{"bufferView":2,"byteOffset":1176,"componentType":5123,"count":6,"type":"SCALAR"},{"bufferView":2,"byteOffset":1188,"componentType":5123,"count":24,"type":"SCALAR"},{"bufferView":2,"byteOffset":1236,"componentType":5123,"count":156,"type":"SCALAR"},{"bufferView":2,"byteOffset":1548,"componentType":5123,"count":6,"type":"SCALAR"}],"asset":{"generator":"Open CASCADE Technology 7.6 [dev.opencascade.org]","version":"2.0"},"bufferViews":[{"buffer":0,"byteLength":3336,"byteOffset":0,"byteStride":12,"target":34962},{"buffer":0,"byteLength":3336,"byteOffset":3336,"byteStride":12,"target":34962},{"buffer":0,"byteLength":1560,"byteOffset":6672,"target":34963}],"buffers":[{"byteLength":8232,"uri":"SensorBracketC.bin"}],"materials":[{"name":"mat_0","pbrMetallicRoughness":{"baseColorFactor":[0.6038273572921753,0.6038273572921753,0.6038273572921753,1.0]},"doubleSided":true}],"meshes":[{"name":"SensorBracketC","primitives":[{"attributes":{"NORMAL":11,"POSITION":0},"indices":22,"material":0,"mode":4},{"attributes":{"NORMAL":12,"POSITION":1},"indices":23,"material":0,"mode":4},{"attributes":{"NORMAL":13,"POSITION":2},"indices":24,"material":0,"mode":4},{"attributes":{"NORMAL":14,"POSITION":3},"indices":25,"material":0,"mode":4},{"attributes":{"NORMAL":15,"POSITION":4},"indices":26,"material":0,"mode":4},{"attributes":{"NORMAL":16,"POSITION":5},"indices":27,"material":0,"mode":4},{"attributes":{"NORMAL":17,"POSITION":6},"indices":28,"material":0,"mode":4},{"attributes":{"NORMAL":18,"POSITION":7},"indices":29,"material":0,"mode":4},{"attributes":{"NORMAL":19,"POSITION":8},"indices":30,"material":0,"mode":4},{"attributes":{"NORMAL":20,"POSITION":9},"indices":31,"material":0,"mode":4},{"attributes":{"NORMAL":21,"POSITION":10},"indices":32,"material":0,"mode":4}]}],"nodes":[{"mesh":0,"name":"SensorBracketC"}],"scene":0,"scenes":[{"nodes":[0]}]}