{"accessors":[{"bufferView":0,"byteOffset":0,"componentType":5126,"count":149,"max":[0.03596375039548735,0.036000000000000007,3.007962523665484e-17],"min":[-0.03596375039548731,-0.035855074583828628,-0.03700000000000002],"type":"VEC3"},{"bufferView":0,"byteOffset":1788,"componentType":5126,"count":70,"max":[0.03596375039548735,0.036000000000000007,-0.03699999999999998],"min":[-0.03596375039548731,-0.035855074583828628,-0.037265625000000027],"type":"VEC3"},{"bufferView":0,"byteOffset":2628,"componentType":5126,"count":167,"max":[0.032463188523447778,0.0325,2.6997795953362719e-17],"min":[-0.03246318852344774,-0.032352837483625277,-0.037265625000000027],"type":"VEC3"},{"bufferView":0,"byteOffset":4632,"componentType":5126,"count":66,"max":[0.034352829082178699,0.0345,3.007962523665484e-17],"min":[-0.034352829082178699,-0.0345,-1.5e-17],"type":"VEC3"},{"bufferView":0,"byteOffset":5424,"componentType":5126,"count":603,"max":[0.0155,0.0155,0.028],"min":[-0.0155,-0.0155,-1.3498897976681359e-17],"type":"VEC3"},{"bufferView":0,"byteOffset":12660,"componentType":5126,"count":32,"max":[0.0155,0.0155,7e-18],"min":[-0.0155,-0.0155,-1.3498897976681359e-17],"type":"VEC3"},{"bufferView":0,"byteOffset":13044,"componentType":5126,"count":605,"max":[0.0155,0.015500000000000002,0.028000000000000016],"min":[-0.0155,-0.0155,-1.4210854715202005e-17],"type":"VEC3"},{"bufferView":0,"byteOffset":20304,"componentType":5126,"count":32,"max":[0.0155,0.015500000000000002,1.4210854715202005e-17],"min":[-0.0155,-0.0155,-1.4210854715202005e-17],"type":"VEC3"},{"bufferView":0,"byteOffset":20688,"componentType":5126,"count":64,"max":[0.0155,0.015480105861151325,3.40562328945329e-18],"min":[-0.015420474512574376,-0.015480105861151318,-0.035],"type":"VEC3"},{"bufferView":0,"byteOffset":21456,"componentType":5126,"count":31,"max":[0.0155,0.015480105861151318,3.40562328945329e-18],"min":[-0.015420474512574376,-0.015480105861151318,-3.40562328945329e-18],"type":"VEC3"},{"bufferView":0,"byteOffset":21828,"componentType":5126,"count":31,"max":[0.0155,0.015480105861151325,-0.035],"min":[-0.015420474512574376,-0.015480105861151311,-0.035],"type":"VEC3"},{"bufferView":0,"byteOffset":22200,"componentType":5126,"count":4,"max":[0.01,0.010674509805687,0.0020000000000000019],"min":[-0.01,0.010674509805687,0.0],"type":"VEC3"},{"bufferView":0,"byteOffset":22248,"componentType":5126,"count":18,"max":[0.013502085062089652,0.023258644453421,0.0020000000000000019],"min":[0.009999999999999997,0.010674509805687,-1.7763568394002506e-18],"type":"VEC3"},{"bufferView":0,"byteOffset":22464,"componentType":5126,"count":18,"max":[0.012172162835585003,0.02608240280414891,0.0020000000000000089],"min":[-0.0125,0.023258644453421,-1.7763568394002506e-18],"type":"VEC3"},{"bufferView":0,"byteOffset":22680,"componentType":5126,"count":18,"max":[-0.01,0.023598245139734004,0.0020000000000000019],"min":[-0.013857639442121834,0.010674509805687,0.0],"type":"VEC3"},{"bufferView":0,"byteOffset":22896,"componentType":5126,"count":25,"max":[0.013502085062089652,0.02608240280414891,7.105427357601002e-18],"min":[-0.013857639442121834,0.010674509805687,-1.7763568394002506e-18],"type":"VEC3"},{"bufferView":0,"byteOffset":23196,"componentType":5126,"count":25,"max":[0.013502085062089652,0.02608240280414891,0.0020000000000000089],"min":[-0.013857639442121834,0.010674509805687,0.0019999999999999967],"type":"VEC3"},{"bufferView":0,"byteOffset":23496,"componentType":5126,"count":4,"max":[0.010000000000000004,0.010674509805687004,0.002],"min":[-0.010000000000000004,0.010674509805687004,-1.7763568394002506e-18],"type":"VEC3"},{"bufferView":0,"byteOffset":23544,"componentType":5126,"count":16,"max":[0.013476208363498327,0.023258644453421,0.0020000000000000019],"min":[0.010000000000000002,0.010674509805687004,-1.7763568394002506e-18],"type":"VEC3"},{"bufferView":0,"byteOffset":23736,"componentType":5126,"count":18,"max":[0.012172162835585006,0.026082402804148923,0.0020000000000000089],"min":[-0.012500000000000005,0.023258644453421,0.0],"type":"VEC3"},{"bufferView":0,"byteOffset":23952,"componentType":5126,"count":18,"max":[-0.010000000000000002,0.023598245139734007,0.0020000000000000054],"min":[-0.013857639442121836,0.010674509805687004,0.0],"type":"VEC3"},{"bufferView":0,"byteOffset":24168,"componentType":5126,"count":24,"max":[0.013476208363498327,0.026082402804148923,8.881784197001253e-18],"min":[-0.013857639442121836,0.010674509805687004,-1.7763568394002506e-18],"type":"VEC3"},{"bufferView":0,"byteOffset":24456,"componentType":5126,"count":24,"max":[0.013476208363498327,0.026082402804148923,0.0020000000000000089],"min":[-0.013857639442121834,0.010674509805687004,0.0019999999999999985],"type":"VEC3"},{"bufferView":0,"byteOffset":24744,"componentType":5126,"count":4,"max":[0.010000000000000004,0.010674509805687004,0.0020000000000000037],"min":[-0.01,0.010674509805687,-1.7763568394002506e-18],"type":"VEC3"},{"bufferView":0,"byteOffset":24792,"componentType":5126,"count":18,"max":[0.013502085062089655,0.023258644453421005,0.0020000000000000037],"min":[0.01,0.010674509805687002,-1.7763568394002506e-18],"type":"VEC3"},{"bufferView":0,"byteOffset":25008,"componentType":5126,"count":18,"max":[0.012172162835585006,0.02608240280414891,0.0020000000000000089],"min":[-0.0125,0.023258644453421,0.0],"type":"VEC3"},{"bufferView":0,"byteOffset":25224,"componentType":5126,"count":18,"max":[-0.009999999999999999,0.023598245139734007,0.0020000000000000019],"min":[-0.013857639442121834,0.010674509805687,1.7763568394002506e-18],"type":"VEC3"},{"bufferView":0,"byteOffset":25440,"componentType":5126,"count":25,"max":[0.013502085062089655,0.02608240280414891,5.3290705182007518e-18],"min":[-0.013857639442121834,0.010674509805687002,-1.7763568394002506e-18],"type":"VEC3"},{"bufferView":0,"byteOffset":25740,"componentType":5126,"count":25,"max":[0.013502085062089652,0.02608240280414891,0.0020000000000000089],"min":[-0.013857639442121834,0.010674509805687,0.0019999999999999985],"type":"VEC3"},{"bufferView":0,"byteOffset":26040,"componentType":5126,"count":16,"max":[-0.009495922484433001,0.005,-0.015448854167760004],"min":[-0.010995922484430002,-0.005,-0.016948854167760004],"type":"VEC3"},{"bufferView":0,"byteOffset":26232,"componentType":5126,"count":4,"max":[-0.010995922484430002,0.005,0.01855114583224],"min":[-0.010995922484430002,-0.005,-0.015448854167760004],"type":"VEC3"},{"bufferView":0,"byteOffset":26280,"componentType":5126,"count":16,"max":[-0.009495922484433001,0.005,0.02005114583224],"min":[-0.010995922484430002,-0.005,0.01855114583224],"type":"VEC3"},{"bufferView":0,"byteOffset":26472,"componentType":5126,"count":4,"max":[0.010004077515566999,0.005,0.02005114583224],"min":[-0.009495922484433001,-0.005,0.02005114583224],"type":"VEC3"},{"bufferView":0,"byteOffset":26520,"componentType":5126,"count":16,"max":[0.011504077515567,0.005,0.02005114583224],"min":[0.010004077515566999,-0.005,0.01855114583224],"type":"VEC3"},{"bufferView":0,"byteOffset":26712,"componentType":5126,"count":4,"max":[0.011504077515567,0.005,0.01855114583224],"min":[0.011504077515567,-0.005,-0.015448854167760004],"type":"VEC3"},{"bufferView":0,"byteOffset":26760,"componentType":5126,"count":16,"max":[0.011504077515567,0.005,-0.015448854167760004],"min":[0.010004077515566999,-0.005,-0.016948854167760004],"type":"VEC3"},{"bufferView":0,"byteOffset":26952,"componentType":5126,"count":4,"max":[0.010004077515566999,0.005,-0.016948854167760004],"min":[-0.009495922484433001,-0.005,-0.016948854167760004],"type":"VEC3"},{"bufferView":0,"byteOffset":27000,"componentType":5126,"count":32,"max":[0.011504077515567,-0.005,0.02005114583224],"min":[-0.010995922484430002,-0.005,-0.016948854167760004],"type":"VEC3"},{"bufferView":0,"byteOffset":27384,"componentType":5126,"count":32,"max":[0.011504077515567,0.005,0.02005114583224],"min":[-0.010995922484430002,0.005,-0.016948854167760004],"type":"VEC3"},{"bufferView":1,"byteOffset":0,"componentType":5126,"count":149,"type":"VEC3"},{"bufferView":1,"byteOffset":1788,"componentType":5126,"count":70,"type":"VEC3"},{"bufferView":1,"byteOffset":2628,"componentType":5126,"count":167,"type":"VEC3"},{"bufferView":1,"byteOffset":4632,"componentType":5126,"count":66,"type":"VEC3"},{"bufferView":1,"byteOffset":5424,"componentType":5126,"count":603,"type":"VEC3"},{"bufferView":1,"byteOffset":12660,"componentType":5126,"count":32,"type":"VEC3"},{"bufferView":1,"byteOffset":13044,"componentType":5126,"count":605,"type":"VEC3"},{"bufferView":1,"byteOffset":20304,"componentType":5126,"count":32,"type":"VEC3"},{"bufferView":1,"byteOffset":20688,"componentType":5126,"count":64,"type":"VEC3"},{"bufferView":1,"byteOffset":21456,"componentType":5126,"count":31,"type":"VEC3"},{"bufferView":1,"byteOffset":21828,"componentType":5126,"count":31,"type":"VEC3"},{"bufferView":1,"byteOffset":22200,"componentType":5126,"count":4,"type":"VEC3"},{"bufferView":1,"byteOffset":22248,"componentType":5126,"count":18,"type":"VEC3"},{"bufferView":1,"byteOffset":22464,"componentType":5126,"count":18,"type":"VEC3"},{"bufferView":1,"byteOffset":22680,"componentType":5126,"count":18,"type":"VEC3"},{"bufferView":1,"byteOffset":22896,"componentType":5126,"count":25,"type":"VEC3"},{"bufferView":1,"byteOffset":23196,"componentType":5126,"count":25,"type":"VEC3"},{"bufferView":1,"byteOffset":23496,"componentType":5126,"count":4,"type":"VEC3"},{"bufferView":1,"byteOffset":23544,"componentType":5126,"count":16,"type":"VEC3"},{"bufferView":1,"byteOffset":23736,"componentType":5126,"count":18,"type":"VEC3"},{"bufferView":1,"byteOffset":23952,"componentType":5126,"count":18,"type":"VEC3"},{"bufferView":1,"byteOffset":24168,"componentType":5126,"count":24,"type":"VEC3"},{"bufferView":1,"byteOffset":24456,"componentType":5126,"count":24,"type":"VEC3"},{"bufferView":1,"byteOffset":24744,"componentType":5126,"count":4,"type":"VEC3"},{"bufferView":1,"byteOffset":24792,"componentType":5126,"count":18,"type":"VEC3"},{"bufferView":1,"byteOffset":25008,"componentType":5126,"count":18,"type":"VEC3"},{"bufferView":1,"byteOffset":25224,"componentType":5126,"count":18,"type":"VEC3"},{"bufferView":1,"byteOffset":25440,"componentType":5126,"count":25,"type":"VEC3"},{"bufferView":1,"byteOffset":25740,"componentType":5126,"count":25,"type":"VEC3"},{"bufferView":1,"byteOffset":26040,"componentType":5126,"count":16,"type":"VEC3"},{"bufferView":1,"byteOffset":26232,"componentType":5126,"count":4,"type":"VEC3"},{"bufferView":1,"byteOffset":26280,"componentType":5126,"count":16,"type":"VEC3"},{"bufferView":1,"byteOffset":26472,"componentType":5126,"count":4,"type":"VEC3"},{"bufferView":1,"byteOffset":26520,"componentType":5126,"count":16,"type":"VEC3"},{"bufferView":1,"byteOffset":26712,"componentType":5126,"count":4,"type":"VEC3"},{"bufferView":1,"byteOffset":26760,"componentType":5126,"count":16,"type":"VEC3"},{"bufferView":1,"byteOffset":26952,"componentType":5126,"count":4,"type":"VEC3"},{"bufferView":1,"byteOffset":27000,"componentType":5126,"count":32,"type":"VEC3"},{"bufferView":1,"byteOffset":27384,"componentType":5126,"count":32,"type":"VEC3"},{"bufferView":2,"byteOffset":0,"componentType":5123,"count":657,"type":"SCALAR"},{"bufferView":2,"byteOffset":1316,"componentType":5123,"count":204,"type":"SCALAR"},{"bufferView":2,"byteOffset":1724,"componentType":5123,"count":771,"type":"SCALAR"},{"bufferView":2,"byteOffset":3268,"componentType":5123,"count":198,"type":"SCALAR"},{"bufferView":2,"byteOffset":3664,"componentType":5123,"count":3483,"type":"SCALAR"},{"bufferView":2,"byteOffset":10632,"componentType":5123,"count":90,"type":"SCALAR"},{"bufferView":2,"byteOffset":10812,"componentType":5123,"count":3495,"type":"SCALAR"},{"bufferView":2,"byteOffset":17804,"componentType":5123,"count":90,"type":"SCALAR"},{"bufferView":2,"byteOffset":17984,"componentType":5123,"count":186,"type":"SCALAR"},{"bufferView":2,"byteOffset":18356,"componentType":5123,"count":87,"type":"SCALAR"},{"bufferView":2,"byteOffset":18532,"componentType":5123,"count":87,"type":"SCALAR"},{"bufferView":2,"byteOffset":18708,"componentType":5123,"count":6,"type":"SCALAR"},{"bufferView":2,"byteOffset":18720,"componentType":5123,"count":48,"type":"SCALAR"},{"bufferView":2,"byteOffset":18816,"componentType":5123,"count":48,"type":"SCALAR"},{"bufferView":2,"byteOffset":18912,"componentType":5123,"count":48,"type":"SCALAR"},{"bufferView":2,"byteOffset":19008,"componentType":5123,"count":69,"type":"SCALAR"},{"bufferView":2,"byteOffset":19148,"componentType":5123,"count":69,"type":"SCALAR"},{"bufferView":2,"byteOffset":19288,"componentType":5123,"count":6,"type":"SCALAR"},{"bufferView":2,"byteOffset":19300,"componentType":5123,"count":42,"type":"SCALAR"},{"bufferView":2,"byteOffset":19384,"componentType":5123,"count":48,"type":"SCALAR"},{"bufferView":2,"byteOffset":19480,"componentType":5123,"count":48,"type":"SCALAR"},{"bufferView":2,"byteOffset":19576,"componentType":5123,"count":66,"type":"SCALAR"},{"bufferView":2,"byteOffset":19708,"componentType":5123,"count":66,"type":"SCALAR"},{"bufferView":2,"byteOffset":19840,"componentType":5123,"count":6,"type":"SCALAR"},{"bufferView":2,"byteOffset":19852,"componentType":5123,"count":48,"type":"SCALAR"},{"bufferView":2,"byteOffset":19948,"componentType":5123,"count":48,"type":"SCALAR"},{"bufferView":2,"byteOffset":20044,"componentType":5123,"count":48,"type":"SCALAR"},{"bufferView":2,"byteOffset":20140,"componentType":5123,"count":69,"type":"SCALAR"},{"bufferView":2,"byteOffset":20280,"componentType":5123,"count":69,"type":"SCALAR"},{"bufferView":2,"byteOffset":20420,"componentType":5123,"count":42,"type":"SCALAR"},{"bufferView":2,"byteOffset":20504,"componentType":5123,"count":6,"type":"SCALAR"},{"bufferView":2,"byteOffset":20516,"componentType":5123,"count":42,"type":"SCALAR"},{"bufferView":2,"byteOffset":20600,"componentType":5123,"count":6,"type":"SCALAR"},{"bufferView":2,"byteOffset":20612,"componentType":5123,"count":42,"type":"SCALAR"},{"bufferView":2,"byteOffset":20696,"componentType":5123,"count":6,"type":"SCALAR"},{"bufferView":2,"byteOffset":20708,"componentType":5123,"count":42,"type":"SCALAR"},{"bufferView":2,"byteOffset":20792,"componentType":5123,"count":6,"type":"SCALAR"},{"bufferView":2,"byteOffset":20804,"componentType":5123,"count":90,"type":"SCALAR"},{"bufferView":2,"byteOffset":20984,"componentType":5123,"count":90,"type":"SCALAR"}],"asset":{"generator":"Open CASCADE Technology 7.6 [dev.opencascade.org]","version":"2.0"},"bufferViews":[{"buffer":0,"byteLength":27768,"byteOffset":0,"byteStride":12,"target":34962},{"buffer":0,"byteLength":27768,"byteOffset":27768,"byteStride":12,"target":34962},{"buffer":0,"byteLength":21164,"byteOffset":55536,"target":34963}],"buffers":[{"byteLength":76700,"uri":"Thruster_U2.bin"}],"materials":[{"name":"mat_0","pbrMetallicRoughness":{"baseColorFactor":[0.0,0.0,0.0,1.0]},"doubleSided":true},{"name":"mat_1","pbrMetallicRoughness":{"baseColorFactor":[1.0,0.0,0.0,1.0]},"doubleSided":true}],"meshes":[{"name":"Case","primitives":[{"attributes":{"NORMAL":39,"POSITION":0},"indices":78,"material":0,"mode":4},{"attributes":{"NORMAL":40,"POSITION":1},"indices":79,"material":0,"mode":4},{"attributes":{"NORMAL":41,"POSITION":2},"indices":80,"material":0,"mode":4},{"attributes":{"NORMAL":42,"POSITION":3},"indices":81,"material":0,"mode":4}]},{"name":"Cover","primitives":[{"attributes":{"NORMAL":43,"POSITION":4},"indices":82,"material":0,"mode":4},{"attributes":{"NORMAL":44,"POSITION":5},"indices":83,"material":0,"mode":4}]},{"name":"Cover002","primitives":[{"attributes":{"NORMAL":45,"POSITION":6},"indices":84,"material":0,"mode":4},{"attributes":{"NORMAL":46,"POSITION":7},"indices":85,"material":0,"mode":4}]},{"name":"Hub","primitives":[{"attributes":{"NORMAL":47,"POSITION":8},"indices":86,"material":1,"mode":4},{"attributes":{"NORMAL":48,"POSITION":9},"indices":87,"material":1,"mode":4},{"attributes":{"NORMAL":49,"POSITION":10},"indices":88,"material":1,"mode":4}]},{"name":"Blade","primitives":[{"attributes":{"NORMAL":50,"POSITION":11},"indices":89,"material":1,"mode":4},{"attributes":{"NORMAL":51,"POSITION":12},"indices":90,"material":1,"mode":4},{"attributes":{"NORMAL":52,"POSITION":13},"indices":91,"material":1,"mode":4},{"attributes":{"NORMAL":53,"POSITION":14},"indices":92,"material":1,"mode":4},{"attributes":{"NORMAL":54,"POSITION":15},"indices":93,"material":1,"mode":4},{"attributes":{"NORMAL":55,"POSITION":16},"indices":94,"material":1,"mode":4}]},{"name":"Blade004","primitives":[{"attributes":{"NORMAL":56,"POSITION":17},"indices":95,"material":1,"mode":4},{"attributes":{"NORMAL":57,"POSITION":18},"indices":96,"material":1,"mode":4},{"attributes":{"NORMAL":58,"POSITION":19},"indices":97,"material":1,"mode":4},{"attributes":{"NORMAL":59,"POSITION":20},"indices":98,"material":1,"mode":4},{"attributes":{"NORMAL":60,"POSITION":21},"indices":99,"material":1,"mode":4},{"attributes":{"NORMAL":61,"POSITION":22},"indices":100,"material":1,"mode":4}]},{"name":"Blade005","primitives":[{"attributes":{"NORMAL":62,"POSITION":23},"indices":101,"material":1,"mode":4},{"attributes":{"NORMAL":63,"POSITION":24},"indices":102,"material":1,"mode":4},{"attributes":{"NORMAL":64,"POSITION":25},"indices":103,"material":1,"mode":4},{"attributes":{"NORMAL":65,"POSITION":26},"indices":104,"material":1,"mode":4},{"attributes":{"NORMAL":66,"POSITION":27},"indices":105,"material":1,"mode":4},{"attributes":{"NORMAL":67,"POSITION":28},"indices":106,"material":1,"mode":4}]},{"name":"Mounting bracket","primitives":[{"attributes":{"NORMAL":68,"POSITION":29},"indices":107,"material":0,"mode":4},{"attributes":{"NORMAL":69,"POSITION":30},"indices":108,"material":0,"mode":4},{"attributes":{"NORMAL":70,"POSITION":31},"indices":109,"material":0,"mode":4},{"attributes":{"NORMAL":71,"POSITION":32},"indices":110,"material":0,"mode":4},{"attributes":{"NORMAL":72,"POSITION":33},"indices":111,"material":0,"mode":4},{"attributes":{"NORMAL":73,"POSITION":34},"indices":112,"material":0,"mode":4},{"attributes":{"NORMAL":74,"POSITION":35},"indices":113,"material":0,"mode":4},{"attributes":{"NORMAL":75,"POSITION":36},"indices":114,"material":0,"mode":4},{"attributes":{"NORMAL":76,"POSITION":37},"indices":115,"material":0,"mode":4},{"attributes":{"NORMAL":77,"POSITION":38},"indices":116,"material":0,"mode":4}]}],"nodes":[{"children":[1,2,3,4,5,6,7,8],"name":"U2(ApisQueen)_Fore"},{"mesh":0,"name":"Case"},{"mesh":1,"name":"Cover"},{"rotation":[0.9999999999999991,0.0,0.0,-4.3711384500000048e-8],"translation":[0.0,-6.906571798e-9,-0.036997062683105],"mesh":2,"name":"Cover002"},{"mesh":3,"name":"Hub"},{"rotation":[0.0,0.2588190451026266,0.0,0.9659258262890399],"translation":[1.1e-17,0.0,-0.017],"mesh":4,"name":"Blade"},{"rotation":[4.3015799614685538e-8,-0.2500000977043619,0.8660253573787801,-0.4330127382938798],"translation":[0.00007203058898448999,-0.000001537911826745,-0.016883647918701004],"mesh":5,"name":"Blade004"},{"rotation":[-0.20533498490721048,0.1575590770706723,0.766320503052836,0.5880183396856275],"translation":[1.07521736936e-7,-8.72919627e-7,-0.018001953125],"mesh":6,"name":"Blade005"},{"translation":[0.0,0.038,-0.02],"mesh":7,"name":"Mounting bracket"}],"scene":0,"scenes":[{"nodes":[0]}]}