{"accessors":[{"bufferView":0,"byteOffset":0,"componentType":5126,"count":54,"max":[0.06250000000000003,0.062044304631128397,0.3000000000000008],"min":[-0.06250000000000002,-0.06204430463112841,-0.3],"type":"VEC3"},{"bufferView":0,"byteOffset":648,"componentType":5126,"count":119,"max":[0.06250000000000003,0.062044304631128397,-0.3],"min":[-0.06250000000000002,-0.06204430463112841,-0.3624999999999976],"type":"VEC3"},{"bufferView":0,"byteOffset":2076,"componentType":5126,"count":119,"max":[0.06250000000000003,0.062044304631128397,0.3624999999998356],"min":[-0.06250000000000002,-0.06204430463112841,0.3000000000000008],"type":"VEC3"},{"bufferView":0,"byteOffset":3504,"componentType":5126,"count":46,"max":[0.022912878474779208,0.024916683568362204,0.05],"min":[-0.02500000000000001,-0.024916683568362218,0.0],"type":"VEC3"},{"bufferView":0,"byteOffset":4056,"componentType":5126,"count":4,"max":[0.07148331010667439,-0.01,0.05],"min":[0.022912878474779208,-0.010000000000000006,0.0],"type":"VEC3"},{"bufferView":0,"byteOffset":4104,"componentType":5126,"count":62,"max":[0.20070947300000006,0.0649837788261752,0.05],"min":[0.07148331010667439,-0.06498377882617522,-2.842170943040401e-17],"type":"VEC3"},{"bufferView":0,"byteOffset":4848,"componentType":5126,"count":4,"max":[0.0714833101066744,0.010000000000000018,0.05],"min":[0.022912878474779208,0.010000000000000006,0.0],"type":"VEC3"},{"bufferView":0,"byteOffset":4896,"componentType":5126,"count":64,"max":[0.1982094730000001,0.06241978169819081,0.05],"min":[0.07353014028800659,-0.06241978169819083,0.0],"type":"VEC3"},{"bufferView":0,"byteOffset":5664,"componentType":5126,"count":54,"max":[0.005000000000000002,0.0049635443704902719,0.05],"min":[-0.005000000000000001,-0.004963544370490283,0.0],"type":"VEC3"},{"bufferView":0,"byteOffset":6312,"componentType":5126,"count":111,"max":[0.20070947300000006,0.0649837788261752,2.842170943040401e-17],"min":[-0.02500000000000001,-0.0649837788261752,-2.842170943040401e-17],"type":"VEC3"},{"bufferView":0,"byteOffset":7644,"componentType":5126,"count":111,"max":[0.20070947300000006,0.06498377882617519,0.05000000000000001],"min":[-0.02500000000000001,-0.06498377882617522,0.05000000000000001],"type":"VEC3"},{"bufferView":1,"byteOffset":0,"componentType":5126,"count":54,"type":"VEC3"},{"bufferView":1,"byteOffset":648,"componentType":5126,"count":119,"type":"VEC3"},{"bufferView":1,"byteOffset":2076,"componentType":5126,"count":119,"type":"VEC3"},{"bufferView":1,"byteOffset":3504,"componentType":5126,"count":46,"type":"VEC3"},{"bufferView":1,"byteOffset":4056,"componentType":5126,"count":4,"type":"VEC3"},{"bufferView":1,"byteOffset":4104,"componentType":5126,"count":62,"type":"VEC3"},{"bufferView":1,"byteOffset":4848,"componentType":5126,"count":4,"type":"VEC3"},{"bufferView":1,"byteOffset":4896,"componentType":5126,"count":64,"type":"VEC3"},{"bufferView":1,"byteOffset":5664,"componentType":5126,"count":54,"type":"VEC3"},{"bufferView":1,"byteOffset":6312,"componentType":5126,"count":111,"type":"VEC3"},{"bufferView":1,"byteOffset":7644,"componentType":5126,"count":111,"type":"VEC3"},{"bufferView":2,"byteOffset":0,"componentType":5123,"count":156,"type":"SCALAR"},{"bufferView":2,"byteOffset":312,"componentType":5123,"count":585,"type":"SCALAR"},{"bufferView":2,"byteOffset":1484,"componentType":5123,"count":585,"type":"SCALAR"},{"bufferView":2,"byteOffset":2656,"componentType":5123,"count":132,"type":"SCALAR"},{"bufferView":2,"byteOffset":2920,"componentType":5123,"count":6,"type":"SCALAR"},{"bufferView":2,"byteOffset":2932,"componentType":5123,"count":180,"type":"SCALAR"},{"bufferView":2,"byteOffset":3292,"componentType":5123,"count":6,"type":"SCALAR"},{"bufferView":2,"byteOffset":3304,"componentType":5123,"count":186,"type":"SCALAR"},{"bufferView":2,"byteOffset":3676,"componentType":5123,"count":156,"type":"SCALAR"},{"bufferView":2,"byteOffset":3988,"componentType":5123,"count":339,"type":"SCALAR"},{"bufferView":2,"byteOffset":4668,"componentType":5123,"count":339,"type":"SCALAR"}],"asset":{"generator":"Open CASCADE Technology 7.6 [dev.opencascade.org]","version":"2.0"},"bufferViews":[{"buffer":0,"byteLength":8976,"byteOffset":0,"byteStride":12,"target":34962},{"buffer":0,"byteLength":8976,"byteOffset":8976,"byteStride":12,"target":34962},{"buffer":0,"byteLength":5348,"byteOffset":17952,"target":34963}],"buffers":[{"byteLength":23300,"uri":"Aka.bin"}],"materials":[{"name":"mat_0","pbrMetallicRoughness":{"baseColorFactor":[1.0,0.0,0.0,1.0]},"doubleSided":true},{"name":"mat_1","pbrMetallicRoughness":{"baseColorFactor":[0.09084171801805496,1.0,0.0,1.0]},"doubleSided":true}],"meshes":[{"name":"AkaFloat","primitives":[{"attributes":{"NORMAL":11,"POSITION":0},"indices":22,"material":0,"mode":4},{"attributes":{"NORMAL":12,"POSITION":1},"indices":23,"material":0,"mode":4},{"attributes":{"NORMAL":13,"POSITION":2},"indices":24,"material":0,"mode":4}]},{"name":"Hinge1","primitives":[{"attributes":{"NORMAL":14,"POSITION":3},"indices":25,"material":1,"mode":4},{"attributes":{"NORMAL":15,"POSITION":4},"indices":26,"material":1,"mode":4},{"attributes":{"NORMAL":16,"POSITION":5},"indices":27,"material":1,"mode":4},{"attributes":{"NORMAL":17,"POSITION":6},"indices":28,"material":1,"mode":4},{"attributes":{"NORMAL":18,"POSITION":7},"indices":29,"material":1,"mode":4},{"attributes":{"NORMAL":19,"POSITION":8},"indices":30,"material":1,"mode":4},{"attributes":{"NORMAL":20,"POSITION":9},"indices":31,"material":1,"mode":4},{"attributes":{"NORMAL":21,"POSITION":10},"indices":32,"material":1,"mode":4}]},{"name":"Hinge1","primitives":[{"attributes":{"NORMAL":14,"POSITION":3},"indices":25,"material":1,"mode":4},{"attributes":{"NORMAL":15,"POSITION":4},"indices":26,"material":1,"mode":4},{"attributes":{"NORMAL":16,"POSITION":5},"indices":27,"material":1,"mode":4},{"attributes":{"NORMAL":17,"POSITION":6},"indices":28,"material":1,"mode":4},{"attributes":{"NORMAL":18,"POSITION":7},"indices":29,"material":1,"mode":4},{"attributes":{"NORMAL":19,"POSITION":8},"indices":30,"material":1,"mode":4},{"attributes":{"NORMAL":20,"POSITION":9},"indices":31,"material":1,"mode":4},{"attributes":{"NORMAL":21,"POSITION":10},"indices":32,"material":1,"mode":4}]}],"nodes":[{"children":[1,2,3],"name":"LeftAka"},{"translation":[0.1356,0.0,0.0],"mesh":0,"name":"AkaFloat"},{"translation":[0.0,0.0,0.22710000000000003],"mesh":1,"name":"Hinge1"},{"translation":[-1.53183991642e-8,0.0,-0.19900015258789065],"mesh":2,"name":"Hinge2"}],"scene":0,"scenes":[{"nodes":[0]}]}