{"accessors":[{"bufferView":0,"byteOffset":0,"componentType":5126,"count":8,"max":[0.1600000000000001,-0.02487190333310065,0.05000000000000003],"min":[0.12250056499701917,-0.02487190333310066,-0.05000000000000003],"type":"VEC3"},{"bufferView":0,"byteOffset":96,"componentType":5126,"count":46,"max":[0.18500000000000003,0.025128096666899383,-0.04999999999999998],"min":[0.12244826972194822,-0.02487190333310065,-0.05000000000000004],"type":"VEC3"},{"bufferView":0,"byteOffset":648,"componentType":5126,"count":10,"max":[0.12499993163016127,0.025128096666899387,0.05000000000000003],"min":[0.12244826972194822,-0.02487190333310065,-0.05000000000000003],"type":"VEC3"},{"bufferView":0,"byteOffset":768,"componentType":5126,"count":46,"max":[0.18500000000000003,0.025128096666899387,0.05000000000000004],"min":[0.12244826972194822,-0.02487190333310065,0.04999999999999998],"type":"VEC3"},{"bufferView":0,"byteOffset":1320,"componentType":5126,"count":30,"max":[0.18500000000000006,0.025128096666899387,0.05000000000000003],"min":[0.1600000000000001,-0.024871903333100657,0.02500000000000003],"type":"VEC3"},{"bufferView":0,"byteOffset":1680,"componentType":5126,"count":43,"max":[0.18500000000000006,0.02512809666689939,0.02500000000000003],"min":[0.1352954742859573,-0.02487190333310066,0.02500000000000003],"type":"VEC3"},{"bufferView":0,"byteOffset":2196,"componentType":5126,"count":4,"max":[0.1352954742859573,0.02512809666689939,0.02500000000000003],"min":[0.1352954742859573,-0.02487190333310066,-0.02500000000000003],"type":"VEC3"},{"bufferView":0,"byteOffset":2244,"componentType":5126,"count":43,"max":[0.18500000000000006,0.025128096666899394,-0.025],"min":[0.1352954742859573,-0.024871903333100653,-0.02500000000000003],"type":"VEC3"},{"bufferView":0,"byteOffset":2760,"componentType":5126,"count":30,"max":[0.18500000000000006,0.025128096666899394,-0.025],"min":[0.1600000000000001,-0.02487190333310065,-0.05000000000000003],"type":"VEC3"},{"bufferView":0,"byteOffset":3120,"componentType":5126,"count":8,"max":[0.1600000000000001,0.025128096666899394,0.05000000000000003],"min":[0.12244826972194822,0.025128096666899387,-0.05000000000000003],"type":"VEC3"},{"bufferView":0,"byteOffset":3216,"componentType":5126,"count":54,"max":[0.16500000000000013,0.0050916410373896569,-0.025],"min":[0.15500000000000004,-0.004835447703590906,-0.05000000000000003],"type":"VEC3"},{"bufferView":0,"byteOffset":3864,"componentType":5126,"count":54,"max":[0.16500000000000013,0.00509164103738965,0.05000000000000003],"min":[0.15500000000000004,-0.004835447703590916,0.02500000000000003],"type":"VEC3"},{"bufferView":1,"byteOffset":0,"componentType":5126,"count":8,"type":"VEC3"},{"bufferView":1,"byteOffset":96,"componentType":5126,"count":46,"type":"VEC3"},{"bufferView":1,"byteOffset":648,"componentType":5126,"count":10,"type":"VEC3"},{"bufferView":1,"byteOffset":768,"componentType":5126,"count":46,"type":"VEC3"},{"bufferView":1,"byteOffset":1320,"componentType":5126,"count":30,"type":"VEC3"},{"bufferView":1,"byteOffset":1680,"componentType":5126,"count":43,"type":"VEC3"},{"bufferView":1,"byteOffset":2196,"componentType":5126,"count":4,"type":"VEC3"},{"bufferView":1,"byteOffset":2244,"componentType":5126,"count":43,"type":"VEC3"},{"bufferView":1,"byteOffset":2760,"componentType":5126,"count":30,"type":"VEC3"},{"bufferView":1,"byteOffset":3120,"componentType":5126,"count":8,"type":"VEC3"},{"bufferView":1,"byteOffset":3216,"componentType":5126,"count":54,"type":"VEC3"},{"bufferView":1,"byteOffset":3864,"componentType":5126,"count":54,"type":"VEC3"},{"bufferView":2,"byteOffset":0,"componentType":5123,"count":18,"type":"SCALAR"},{"bufferView":2,"byteOffset":36,"componentType":5123,"count":138,"type":"SCALAR"},{"bufferView":2,"byteOffset":312,"componentType":5123,"count":24,"type":"SCALAR"},{"bufferView":2,"byteOffset":360,"componentType":5123,"count":138,"type":"SCALAR"},{"bufferView":2,"byteOffset":636,"componentType":5123,"count":84,"type":"SCALAR"},{"bufferView":2,"byteOffset":804,"componentType":5123,"count":129,"type":"SCALAR"},{"bufferView":2,"byteOffset":1064,"componentType":5123,"count":6,"type":"SCALAR"},{"bufferView":2,"byteOffset":1076,"componentType":5123,"count":129,"type":"SCALAR"},{"bufferView":2,"byteOffset":1336,"componentType":5123,"count":84,"type":"SCALAR"},{"bufferView":2,"byteOffset":1504,"componentType":5123,"count":18,"type":"SCALAR"},{"bufferView":2,"byteOffset":1540,"componentType":5123,"count":156,"type":"SCALAR"},{"bufferView":2,"byteOffset":1852,"componentType":5123,"count":156,"type":"SCALAR"}],"asset":{"generator":"Open CASCADE Technology 7.6 [dev.opencascade.org]","version":"2.0"},"bufferViews":[{"buffer":0,"byteLength":4512,"byteOffset":0,"byteStride":12,"target":34962},{"buffer":0,"byteLength":4512,"byteOffset":4512,"byteStride":12,"target":34962},{"buffer":0,"byteLength":2164,"byteOffset":9024,"target":34963}],"buffers":[{"byteLength":11188,"uri":"AkaHinge_Left1.bin"}],"materials":[{"name":"mat_0","pbrMetallicRoughness":{"baseColorFactor":[0.09084171801805496,1.0,0.0,1.0]},"doubleSided":true}],"meshes":[{"name":"AkaHinge_Left1","primitives":[{"attributes":{"NORMAL":12,"POSITION":0},"indices":24,"material":0,"mode":4},{"attributes":{"NORMAL":13,"POSITION":1},"indices":25,"material":0,"mode":4},{"attributes":{"NORMAL":14,"POSITION":2},"indices":26,"material":0,"mode":4},{"attributes":{"NORMAL":15,"POSITION":3},"indices":27,"material":0,"mode":4},{"attributes":{"NORMAL":16,"POSITION":4},"indices":28,"material":0,"mode":4},{"attributes":{"NORMAL":17,"POSITION":5},"indices":29,"material":0,"mode":4},{"attributes":{"NORMAL":18,"POSITION":6},"indices":30,"material":0,"mode":4},{"attributes":{"NORMAL":19,"POSITION":7},"indices":31,"material":0,"mode":4},{"attributes":{"NORMAL":20,"POSITION":8},"indices":32,"material":0,"mode":4},{"attributes":{"NORMAL":21,"POSITION":9},"indices":33,"material":0,"mode":4},{"attributes":{"NORMAL":22,"POSITION":10},"indices":34,"material":0,"mode":4},{"attributes":{"NORMAL":23,"POSITION":11},"indices":35,"material":0,"mode":4}]}],"nodes":[{"mesh":0,"name":"AkaHinge_Left1"}],"scene":0,"scenes":[{"nodes":[0]}]}