{"accessors":[{"bufferView":0,"byteOffset":0,"componentType":5126,"count":4,"max":[50.00000000000003,0.0,50.00000000000003],"min":[-50.00000000000003,0.0,-50.00000000000003],"type":"VEC3"},{"bufferView":0,"byteOffset":48,"componentType":5126,"count":4,"max":[50.00000000000003,0.0,50.00000000000003],"min":[50.00000000000003,-2.8750795541075688,-50.00000000000003],"type":"VEC3"},{"bufferView":0,"byteOffset":96,"componentType":5126,"count":4,"max":[50.00000000000003,-2.8750795541075688,50.00000000000003],"min":[-80.00000000000003,-2.8750795541075688,-50.00000000000003],"type":"VEC3"},{"bufferView":0,"byteOffset":144,"componentType":5126,"count":4,"max":[-80.00000000000003,7.124920445892436,50.00000000000003],"min":[-80.00000000000003,-2.8750795541075688,-50.00000000000003],"type":"VEC3"},{"bufferView":0,"byteOffset":192,"componentType":5126,"count":4,"max":[-70.00000000000003,7.124920445892436,50.00000000000003],"min":[-80.00000000000003,7.124920445892436,-50.00000000000003],"type":"VEC3"},{"bufferView":0,"byteOffset":240,"componentType":5126,"count":4,"max":[-50.00000000000003,7.124920445892436,50.00000000000003],"min":[-70.00000000000003,4.1249204458924348,-50.00000000000003],"type":"VEC3"},{"bufferView":0,"byteOffset":288,"componentType":5126,"count":4,"max":[-50.00000000000003,4.1249204458924348,50.00000000000003],"min":[-50.00000000000003,0.0,-50.00000000000003],"type":"VEC3"},{"bufferView":0,"byteOffset":336,"componentType":5126,"count":7,"max":[50.00000000000003,7.124920445892436,-50.00000000000003],"min":[-80.00000000000003,-2.8750795541075715,-50.00000000000003],"type":"VEC3"},{"bufferView":0,"byteOffset":420,"componentType":5126,"count":7,"max":[50.00000000000003,7.124920445892436,50.00000000000003],"min":[-80.00000000000003,-2.8750795541075715,50.00000000000003],"type":"VEC3"},{"bufferView":0,"byteOffset":504,"componentType":5126,"count":4,"max":[0.0,5.0,0.0],"min":[0.0,0.0,-100.0],"type":"VEC3"},{"bufferView":0,"byteOffset":552,"componentType":5126,"count":4,"max":[120.0,5.0,0.0],"min":[120.0,0.0,-100.0],"type":"VEC3"},{"bufferView":0,"byteOffset":600,"componentType":5126,"count":4,"max":[120.0,5.0,0.0],"min":[0.0,0.0,0.0],"type":"VEC3"},{"bufferView":0,"byteOffset":648,"componentType":5126,"count":4,"max":[120.0,5.0,-100.0],"min":[0.0,0.0,-100.0],"type":"VEC3"},{"bufferView":0,"byteOffset":696,"componentType":5126,"count":4,"max":[120.0,0.0,0.0],"min":[0.0,0.0,-100.0],"type":"VEC3"},{"bufferView":0,"byteOffset":744,"componentType":5126,"count":4,"max":[120.0,5.0,0.0],"min":[0.0,5.0,-100.0],"type":"VEC3"},{"bufferView":1,"byteOffset":0,"componentType":5126,"count":4,"type":"VEC3"},{"bufferView":1,"byteOffset":48,"componentType":5126,"count":4,"type":"VEC3"},{"bufferView":1,"byteOffset":96,"componentType":5126,"count":4,"type":"VEC3"},{"bufferView":1,"byteOffset":144,"componentType":5126,"count":4,"type":"VEC3"},{"bufferView":1,"byteOffset":192,"componentType":5126,"count":4,"type":"VEC3"},{"bufferView":1,"byteOffset":240,"componentType":5126,"count":4,"type":"VEC3"},{"bufferView":1,"byteOffset":288,"componentType":5126,"count":4,"type":"VEC3"},{"bufferView":1,"byteOffset":336,"componentType":5126,"count":7,"type":"VEC3"},{"bufferView":1,"byteOffset":420,"componentType":5126,"count":7,"type":"VEC3"},{"bufferView":1,"byteOffset":504,"componentType":5126,"count":4,"type":"VEC3"},{"bufferView":1,"byteOffset":552,"componentType":5126,"count":4,"type":"VEC3"},{"bufferView":1,"byteOffset":600,"componentType":5126,"count":4,"type":"VEC3"},{"bufferView":1,"byteOffset":648,"componentType":5126,"count":4,"type":"VEC3"},{"bufferView":1,"byteOffset":696,"componentType":5126,"count":4,"type":"VEC3"},{"bufferView":1,"byteOffset":744,"componentType":5126,"count":4,"type":"VEC3"},{"bufferView":2,"byteOffset":0,"componentType":5123,"count":6,"type":"SCALAR"},{"bufferView":2,"byteOffset":12,"componentType":5123,"count":6,"type":"SCALAR"},{"bufferView":2,"byteOffset":24,"componentType":5123,"count":6,"type":"SCALAR"},{"bufferView":2,"byteOffset":36,"componentType":5123,"count":6,"type":"SCALAR"},{"bufferView":2,"byteOffset":48,"componentType":5123,"count":6,"type":"SCALAR"},{"bufferView":2,"byteOffset":60,"componentType":5123,"count":6,"type":"SCALAR"},{"bufferView":2,"byteOffset":72,"componentType":5123,"count":6,"type":"SCALAR"},{"bufferView":2,"byteOffset":84,"componentType":5123,"count":15,"type":"SCALAR"},{"bufferView":2,"byteOffset":116,"componentType":5123,"count":15,"type":"SCALAR"},{"bufferView":2,"byteOffset":148,"componentType":5123,"count":6,"type":"SCALAR"},{"bufferView":2,"byteOffset":160,"componentType":5123,"count":6,"type":"SCALAR"},{"bufferView":2,"byteOffset":172,"componentType":5123,"count":6,"type":"SCALAR"},{"bufferView":2,"byteOffset":184,"componentType":5123,"count":6,"type":"SCALAR"},{"bufferView":2,"byteOffset":196,"componentType":5123,"count":6,"type":"SCALAR"},{"bufferView":2,"byteOffset":208,"componentType":5123,"count":6,"type":"SCALAR"}],"asset":{"generator":"Open CASCADE Technology 7.6 [dev.opencascade.org]","version":"2.0"},"bufferViews":[{"buffer":0,"byteLength":792,"byteOffset":0,"byteStride":12,"target":34962},{"buffer":0,"byteLength":792,"byteOffset":792,"byteStride":12,"target":34962},{"buffer":0,"byteLength":220,"byteOffset":1584,"target":34963}],"buffers":[{"byteLength":1804,"uri":"BeachBackground.bin"}],"materials":[{"name":"mat_0","pbrMetallicRoughness":{"baseColorFactor":[0.6038273572921753,0.6038273572921753,0.6038273572921753,1.0]},"doubleSided":true},{"name":"mat_1","pbrMetallicRoughness":{"baseColorFactor":[0.0,0.4019778072834015,1.0,0.5],"metallicFactor":0.0},"doubleSided":true,"alphaMode":"BLEND"}],"meshes":[{"name":"GroundMass","primitives":[{"attributes":{"NORMAL":15,"POSITION":0},"indices":30,"material":0,"mode":4},{"attributes":{"NORMAL":16,"POSITION":1},"indices":31,"material":0,"mode":4},{"attributes":{"NORMAL":17,"POSITION":2},"indices":32,"material":0,"mode":4},{"attributes":{"NORMAL":18,"POSITION":3},"indices":33,"material":0,"mode":4},{"attributes":{"NORMAL":19,"POSITION":4},"indices":34,"material":0,"mode":4},{"attributes":{"NORMAL":20,"POSITION":5},"indices":35,"material":0,"mode":4},{"attributes":{"NORMAL":21,"POSITION":6},"indices":36,"material":0,"mode":4},{"attributes":{"NORMAL":22,"POSITION":7},"indices":37,"material":0,"mode":4},{"attributes":{"NORMAL":23,"POSITION":8},"indices":38,"material":0,"mode":4}]},{"name":"WaterMass","primitives":[{"attributes":{"NORMAL":24,"POSITION":9},"indices":39,"material":1,"mode":4},{"attributes":{"NORMAL":25,"POSITION":10},"indices":40,"material":1,"mode":4},{"attributes":{"NORMAL":26,"POSITION":11},"indices":41,"material":1,"mode":4},{"attributes":{"NORMAL":27,"POSITION":12},"indices":42,"material":1,"mode":4},{"attributes":{"NORMAL":28,"POSITION":13},"indices":43,"material":1,"mode":4},{"attributes":{"NORMAL":29,"POSITION":14},"indices":44,"material":1,"mode":4}]}],"nodes":[{"children":[1,3],"name":"World_ver2"},{"children":[2],"name":"Ground"},{"mesh":0,"name":"GroundMass"},{"children":[4],"name":"Water"},{"translation":[-70.0,0.0,50.0],"mesh":1,"name":"WaterMass"}],"scene":0,"scenes":[{"nodes":[0]}]}