{"accessors":[{"bufferView":0,"byteOffset":0,"componentType":5126,"count":54,"max":[0.07,0.35000000000000006,0.0694896211868638],"min":[-0.07,0.0,-0.06948962118686378],"type":"VEC3"},{"bufferView":0,"byteOffset":648,"componentType":5126,"count":26,"max":[0.07,0.0,0.0694896211868638],"min":[-0.07,0.0,-0.06948962118686378],"type":"VEC3"},{"bufferView":0,"byteOffset":960,"componentType":5126,"count":26,"max":[0.07,0.35000000000000006,0.0694896211868638],"min":[-0.07,0.35000000000000006,-0.06948962118686378],"type":"VEC3"},{"bufferView":0,"byteOffset":1272,"componentType":5126,"count":206,"max":[0.07,1.1368683772161604e-16,0.14987196346674734],"min":[-0.06975972677170907,-0.06882917236212007,-0.14990104274056077],"type":"VEC3"},{"bufferView":0,"byteOffset":3744,"componentType":5126,"count":34,"max":[0.07,1.1368683772161604e-16,0.14987196346674734],"min":[-0.06975972677170907,0.0,-0.14990104274056077],"type":"VEC3"},{"bufferView":0,"byteOffset":4152,"componentType":5126,"count":34,"max":[0.057340643100229,-0.06882917236211984,0.12287030532532283],"min":[-0.05694999912244071,-0.06882917236212007,-0.12272414572259277],"type":"VEC3"},{"bufferView":0,"byteOffset":4560,"componentType":5126,"count":507,"max":[0.07,0.07,0.07],"min":[-0.07,-0.07,-0.07],"type":"VEC3"},{"bufferView":0,"byteOffset":10644,"componentType":5126,"count":54,"max":[0.07,0.37000000000000018,0.06948962118686385],"min":[-0.07,-5.684341886080802e-17,-0.06948962118686379],"type":"VEC3"},{"bufferView":0,"byteOffset":11292,"componentType":5126,"count":26,"max":[0.07,5.684341886080802e-17,0.06948962118686379],"min":[-0.07,-5.684341886080802e-17,-0.06948962118686379],"type":"VEC3"},{"bufferView":0,"byteOffset":11604,"componentType":5126,"count":26,"max":[0.07,0.37000000000000018,0.06948962118686385],"min":[-0.07,0.36999999999999996,-0.0694896211868637],"type":"VEC3"},{"bufferView":0,"byteOffset":11916,"componentType":5126,"count":54,"max":[0.05000000000000005,0.30000000000000007,0.04963544370490272],"min":[-0.05000000000000001,-7.105427357601002e-18,-0.04963544370490272],"type":"VEC3"},{"bufferView":0,"byteOffset":12564,"componentType":5126,"count":26,"max":[0.05,3.552713678800501e-18,0.049635443704902717],"min":[-0.05000000000000001,-7.105427357601002e-18,-0.0496354437049027],"type":"VEC3"},{"bufferView":0,"byteOffset":12876,"componentType":5126,"count":26,"max":[0.05000000000000005,0.30000000000000007,0.04963544370490272],"min":[-0.049999999999999957,0.3,-0.04963544370490272],"type":"VEC3"},{"bufferView":0,"byteOffset":13188,"componentType":5126,"count":54,"max":[0.04,0.2700000000000001,0.03970835496392221],"min":[-0.04000000000000003,-2.842170943040401e-17,-0.039708354963922148],"type":"VEC3"},{"bufferView":0,"byteOffset":13836,"componentType":5126,"count":26,"max":[0.04,5.684341886080802e-17,0.03970835496392218],"min":[-0.04,-2.842170943040401e-17,-0.039708354963922148],"type":"VEC3"},{"bufferView":0,"byteOffset":14148,"componentType":5126,"count":26,"max":[0.04,0.2700000000000001,0.03970835496392221],"min":[-0.04000000000000003,0.27,-0.039708354963922148],"type":"VEC3"},{"bufferView":0,"byteOffset":14460,"componentType":5126,"count":507,"max":[0.05,0.05,0.05000000000000003],"min":[-0.05,-0.049999999999999888,-0.05],"type":"VEC3"},{"bufferView":0,"byteOffset":20544,"componentType":5126,"count":507,"max":[0.07,0.07,0.07],"min":[-0.07,-0.07,-0.07],"type":"VEC3"},{"bufferView":0,"byteOffset":26628,"componentType":5126,"count":54,"max":[0.07,0.35000000000000006,0.0694896211868638],"min":[-0.07,0.0,-0.06948962118686378],"type":"VEC3"},{"bufferView":0,"byteOffset":27276,"componentType":5126,"count":26,"max":[0.07,0.0,0.0694896211868638],"min":[-0.07,0.0,-0.06948962118686378],"type":"VEC3"},{"bufferView":0,"byteOffset":27588,"componentType":5126,"count":26,"max":[0.07,0.35000000000000006,0.0694896211868638],"min":[-0.07,0.35000000000000006,-0.06948962118686378],"type":"VEC3"},{"bufferView":0,"byteOffset":27900,"componentType":5126,"count":206,"max":[0.07,1.1368683772161604e-16,0.14987196346674734],"min":[-0.06975972677170907,-0.06882917236212007,-0.14990104274056077],"type":"VEC3"},{"bufferView":0,"byteOffset":30372,"componentType":5126,"count":34,"max":[0.07,1.1368683772161604e-16,0.14987196346674734],"min":[-0.06975972677170907,0.0,-0.14990104274056077],"type":"VEC3"},{"bufferView":0,"byteOffset":30780,"componentType":5126,"count":34,"max":[0.057340643100229,-0.06882917236211984,0.12287030532532283],"min":[-0.05694999912244071,-0.06882917236212007,-0.12272414572259277],"type":"VEC3"},{"bufferView":0,"byteOffset":31188,"componentType":5126,"count":507,"max":[0.07,0.07,0.07],"min":[-0.07,-0.07,-0.07],"type":"VEC3"},{"bufferView":0,"byteOffset":37272,"componentType":5126,"count":54,"max":[0.07,0.37000000000000018,0.06948962118686385],"min":[-0.07,-5.684341886080802e-17,-0.06948962118686379],"type":"VEC3"},{"bufferView":0,"byteOffset":37920,"componentType":5126,"count":26,"max":[0.07,5.684341886080802e-17,0.06948962118686379],"min":[-0.07,-5.684341886080802e-17,-0.06948962118686379],"type":"VEC3"},{"bufferView":0,"byteOffset":38232,"componentType":5126,"count":26,"max":[0.07,0.37000000000000018,0.06948962118686385],"min":[-0.07,0.36999999999999996,-0.0694896211868637],"type":"VEC3"},{"bufferView":0,"byteOffset":38544,"componentType":5126,"count":54,"max":[0.05000000000000005,0.30000000000000007,0.04963544370490272],"min":[-0.05000000000000001,-7.105427357601002e-18,-0.04963544370490272],"type":"VEC3"},{"bufferView":0,"byteOffset":39192,"componentType":5126,"count":26,"max":[0.05,3.552713678800501e-18,0.049635443704902717],"min":[-0.05000000000000001,-7.105427357601002e-18,-0.0496354437049027],"type":"VEC3"},{"bufferView":0,"byteOffset":39504,"componentType":5126,"count":26,"max":[0.05000000000000005,0.30000000000000007,0.04963544370490272],"min":[-0.049999999999999957,0.3,-0.04963544370490272],"type":"VEC3"},{"bufferView":0,"byteOffset":39816,"componentType":5126,"count":54,"max":[0.04,0.2700000000000001,0.03970835496392221],"min":[-0.04000000000000003,-2.842170943040401e-17,-0.039708354963922148],"type":"VEC3"},{"bufferView":0,"byteOffset":40464,"componentType":5126,"count":26,"max":[0.04,5.684341886080802e-17,0.03970835496392218],"min":[-0.04,-2.842170943040401e-17,-0.039708354963922148],"type":"VEC3"},{"bufferView":0,"byteOffset":40776,"componentType":5126,"count":26,"max":[0.04,0.2700000000000001,0.03970835496392221],"min":[-0.04000000000000003,0.27,-0.039708354963922148],"type":"VEC3"},{"bufferView":0,"byteOffset":41088,"componentType":5126,"count":507,"max":[0.05,0.05,0.05000000000000003],"min":[-0.05,-0.049999999999999888,-0.05],"type":"VEC3"},{"bufferView":0,"byteOffset":47172,"componentType":5126,"count":507,"max":[0.07,0.07,0.07],"min":[-0.07,-0.07,-0.07],"type":"VEC3"},{"bufferView":0,"byteOffset":53256,"componentType":5126,"count":669,"max":[0.19,0.0,0.11987888523011585],"min":[-0.18970282583303584,-0.65,-0.11991458403372757],"type":"VEC3"},{"bufferView":0,"byteOffset":61284,"componentType":5126,"count":33,"max":[0.19,0.0,0.11958337387389859],"min":[-0.18970282583303584,0.0,-0.11991458403372757],"type":"VEC3"},{"bufferView":0,"byteOffset":61680,"componentType":5126,"count":72,"max":[0.05,0.05,0.04994965332706573],"min":[-0.04979871469976195,0.0,-0.04994965332706573],"type":"VEC3"},{"bufferView":0,"byteOffset":62544,"componentType":5126,"count":35,"max":[0.05,0.0,0.04994965332706573],"min":[-0.04979871469976195,0.0,-0.04994965332706573],"type":"VEC3"},{"bufferView":0,"byteOffset":62964,"componentType":5126,"count":35,"max":[0.05,0.05,0.04994965332706573],"min":[-0.04979871469976195,0.05,-0.04994965332706573],"type":"VEC3"},{"bufferView":0,"byteOffset":63384,"componentType":5126,"count":507,"max":[0.135,0.135,0.135],"min":[-0.135,-0.135,-0.135],"type":"VEC3"},{"bufferView":1,"byteOffset":0,"componentType":5126,"count":54,"type":"VEC3"},{"bufferView":1,"byteOffset":648,"componentType":5126,"count":26,"type":"VEC3"},{"bufferView":1,"byteOffset":960,"componentType":5126,"count":26,"type":"VEC3"},{"bufferView":1,"byteOffset":1272,"componentType":5126,"count":206,"type":"VEC3"},{"bufferView":1,"byteOffset":3744,"componentType":5126,"count":34,"type":"VEC3"},{"bufferView":1,"byteOffset":4152,"componentType":5126,"count":34,"type":"VEC3"},{"bufferView":1,"byteOffset":4560,"componentType":5126,"count":507,"type":"VEC3"},{"bufferView":1,"byteOffset":10644,"componentType":5126,"count":54,"type":"VEC3"},{"bufferView":1,"byteOffset":11292,"componentType":5126,"count":26,"type":"VEC3"},{"bufferView":1,"byteOffset":11604,"componentType":5126,"count":26,"type":"VEC3"},{"bufferView":1,"byteOffset":11916,"componentType":5126,"count":54,"type":"VEC3"},{"bufferView":1,"byteOffset":12564,"componentType":5126,"count":26,"type":"VEC3"},{"bufferView":1,"byteOffset":12876,"componentType":5126,"count":26,"type":"VEC3"},{"bufferView":1,"byteOffset":13188,"componentType":5126,"count":54,"type":"VEC3"},{"bufferView":1,"byteOffset":13836,"componentType":5126,"count":26,"type":"VEC3"},{"bufferView":1,"byteOffset":14148,"componentType":5126,"count":26,"type":"VEC3"},{"bufferView":1,"byteOffset":14460,"componentType":5126,"count":507,"type":"VEC3"},{"bufferView":1,"byteOffset":20544,"componentType":5126,"count":507,"type":"VEC3"},{"bufferView":1,"byteOffset":26628,"componentType":5126,"count":54,"type":"VEC3"},{"bufferView":1,"byteOffset":27276,"componentType":5126,"count":26,"type":"VEC3"},{"bufferView":1,"byteOffset":27588,"componentType":5126,"count":26,"type":"VEC3"},{"bufferView":1,"byteOffset":27900,"componentType":5126,"count":206,"type":"VEC3"},{"bufferView":1,"byteOffset":30372,"componentType":5126,"count":34,"type":"VEC3"},{"bufferView":1,"byteOffset":30780,"componentType":5126,"count":34,"type":"VEC3"},{"bufferView":1,"byteOffset":31188,"componentType":5126,"count":507,"type":"VEC3"},{"bufferView":1,"byteOffset":37272,"componentType":5126,"count":54,"type":"VEC3"},{"bufferView":1,"byteOffset":37920,"componentType":5126,"count":26,"type":"VEC3"},{"bufferView":1,"byteOffset":38232,"componentType":5126,"count":26,"type":"VEC3"},{"bufferView":1,"byteOffset":38544,"componentType":5126,"count":54,"type":"VEC3"},{"bufferView":1,"byteOffset":39192,"componentType":5126,"count":26,"type":"VEC3"},{"bufferView":1,"byteOffset":39504,"componentType":5126,"count":26,"type":"VEC3"},{"bufferView":1,"byteOffset":39816,"componentType":5126,"count":54,"type":"VEC3"},{"bufferView":1,"byteOffset":40464,"componentType":5126,"count":26,"type":"VEC3"},{"bufferView":1,"byteOffset":40776,"componentType":5126,"count":26,"type":"VEC3"},{"bufferView":1,"byteOffset":41088,"componentType":5126,"count":507,"type":"VEC3"},{"bufferView":1,"byteOffset":47172,"componentType":5126,"count":507,"type":"VEC3"},{"bufferView":1,"byteOffset":53256,"componentType":5126,"count":669,"type":"VEC3"},{"bufferView":1,"byteOffset":61284,"componentType":5126,"count":33,"type":"VEC3"},{"bufferView":1,"byteOffset":61680,"componentType":5126,"count":72,"type":"VEC3"},{"bufferView":1,"byteOffset":62544,"componentType":5126,"count":35,"type":"VEC3"},{"bufferView":1,"byteOffset":62964,"componentType":5126,"count":35,"type":"VEC3"},{"bufferView":1,"byteOffset":63384,"componentType":5126,"count":507,"type":"VEC3"},{"bufferView":2,"byteOffset":0,"componentType":5123,"count":156,"type":"SCALAR"},{"bufferView":2,"byteOffset":312,"componentType":5123,"count":72,"type":"SCALAR"},{"bufferView":2,"byteOffset":456,"componentType":5123,"count":72,"type":"SCALAR"},{"bufferView":2,"byteOffset":600,"componentType":5123,"count":1008,"type":"SCALAR"},{"bufferView":2,"byteOffset":2616,"componentType":5123,"count":96,"type":"SCALAR"},{"bufferView":2,"byteOffset":2808,"componentType":5123,"count":96,"type":"SCALAR"},{"bufferView":2,"byteOffset":3000,"componentType":5123,"count":2934,"type":"SCALAR"},{"bufferView":2,"byteOffset":8868,"componentType":5123,"count":156,"type":"SCALAR"},{"bufferView":2,"byteOffset":9180,"componentType":5123,"count":72,"type":"SCALAR"},{"bufferView":2,"byteOffset":9324,"componentType":5123,"count":72,"type":"SCALAR"},{"bufferView":2,"byteOffset":9468,"componentType":5123,"count":156,"type":"SCALAR"},{"bufferView":2,"byteOffset":9780,"componentType":5123,"count":72,"type":"SCALAR"},{"bufferView":2,"byteOffset":9924,"componentType":5123,"count":72,"type":"SCALAR"},{"bufferView":2,"byteOffset":10068,"componentType":5123,"count":156,"type":"SCALAR"},{"bufferView":2,"byteOffset":10380,"componentType":5123,"count":72,"type":"SCALAR"},{"bufferView":2,"byteOffset":10524,"componentType":5123,"count":72,"type":"SCALAR"},{"bufferView":2,"byteOffset":10668,"componentType":5123,"count":2934,"type":"SCALAR"},{"bufferView":2,"byteOffset":16536,"componentType":5123,"count":2934,"type":"SCALAR"},{"bufferView":2,"byteOffset":22404,"componentType":5123,"count":156,"type":"SCALAR"},{"bufferView":2,"byteOffset":22716,"componentType":5123,"count":72,"type":"SCALAR"},{"bufferView":2,"byteOffset":22860,"componentType":5123,"count":72,"type":"SCALAR"},{"bufferView":2,"byteOffset":23004,"componentType":5123,"count":1008,"type":"SCALAR"},{"bufferView":2,"byteOffset":25020,"componentType":5123,"count":96,"type":"SCALAR"},{"bufferView":2,"byteOffset":25212,"componentType":5123,"count":96,"type":"SCALAR"},{"bufferView":2,"byteOffset":25404,"componentType":5123,"count":2934,"type":"SCALAR"},{"bufferView":2,"byteOffset":31272,"componentType":5123,"count":156,"type":"SCALAR"},{"bufferView":2,"byteOffset":31584,"componentType":5123,"count":72,"type":"SCALAR"},{"bufferView":2,"byteOffset":31728,"componentType":5123,"count":72,"type":"SCALAR"},{"bufferView":2,"byteOffset":31872,"componentType":5123,"count":156,"type":"SCALAR"},{"bufferView":2,"byteOffset":32184,"componentType":5123,"count":72,"type":"SCALAR"},{"bufferView":2,"byteOffset":32328,"componentType":5123,"count":72,"type":"SCALAR"},{"bufferView":2,"byteOffset":32472,"componentType":5123,"count":156,"type":"SCALAR"},{"bufferView":2,"byteOffset":32784,"componentType":5123,"count":72,"type":"SCALAR"},{"bufferView":2,"byteOffset":32928,"componentType":5123,"count":72,"type":"SCALAR"},{"bufferView":2,"byteOffset":33072,"componentType":5123,"count":2934,"type":"SCALAR"},{"bufferView":2,"byteOffset":38940,"componentType":5123,"count":2934,"type":"SCALAR"},{"bufferView":2,"byteOffset":44808,"componentType":5123,"count":3834,"type":"SCALAR"},{"bufferView":2,"byteOffset":52476,"componentType":5123,"count":93,"type":"SCALAR"},{"bufferView":2,"byteOffset":52664,"componentType":5123,"count":210,"type":"SCALAR"},{"bufferView":2,"byteOffset":53084,"componentType":5123,"count":99,"type":"SCALAR"},{"bufferView":2,"byteOffset":53284,"componentType":5123,"count":99,"type":"SCALAR"},{"bufferView":2,"byteOffset":53484,"componentType":5123,"count":2934,"type":"SCALAR"}],"asset":{"generator":"Open CASCADE Technology 7.6 [dev.opencascade.org]","version":"2.0"},"bufferViews":[{"buffer":0,"byteLength":69468,"byteOffset":0,"byteStride":12,"target":34962},{"buffer":0,"byteLength":69468,"byteOffset":69468,"byteStride":12,"target":34962},{"buffer":0,"byteLength":59352,"byteOffset":138936,"target":34963}],"buffers":[{"byteLength":198288,"uri":"Human.bin"}],"materials":[{"name":"mat_0","pbrMetallicRoughness":{"baseColorFactor":[1.0,1.0,1.0,1.0]},"doubleSided":true},{"name":"mat_1","pbrMetallicRoughness":{"baseColorFactor":[1.0,0.4019778072834015,0.21223075687885285,1.0]},"doubleSided":true},{"name":"mat_2","pbrMetallicRoughness":{"baseColorFactor":[1.0,0.09084171801805496,0.21223075687885285,1.0]},"doubleSided":true},{"name":"mat_3","pbrMetallicRoughness":{"baseColorFactor":[0.6038273572921753,0.6038273572921753,0.6038273572921753,1.0]},"doubleSided":true}],"meshes":[{"name":"LL_Upper","primitives":[{"attributes":{"NORMAL":42,"POSITION":0},"indices":84,"material":0,"mode":4},{"attributes":{"NORMAL":43,"POSITION":1},"indices":85,"material":0,"mode":4},{"attributes":{"NORMAL":44,"POSITION":2},"indices":86,"material":0,"mode":4}]},{"name":"LL_Foot","primitives":[{"attributes":{"NORMAL":45,"POSITION":3},"indices":87,"material":1,"mode":4},{"attributes":{"NORMAL":46,"POSITION":4},"indices":88,"material":1,"mode":4},{"attributes":{"NORMAL":47,"POSITION":5},"indices":89,"material":1,"mode":4}]},{"name":"LL_Waist","primitives":[{"attributes":{"NORMAL":48,"POSITION":6},"indices":90,"material":2,"mode":4}]},{"name":"LL_Lower","primitives":[{"attributes":{"NORMAL":49,"POSITION":7},"indices":91,"material":1,"mode":4},{"attributes":{"NORMAL":50,"POSITION":8},"indices":92,"material":1,"mode":4},{"attributes":{"NORMAL":51,"POSITION":9},"indices":93,"material":1,"mode":4}]},{"name":"LA_Upper","primitives":[{"attributes":{"NORMAL":52,"POSITION":10},"indices":94,"material":3,"mode":4},{"attributes":{"NORMAL":53,"POSITION":11},"indices":95,"material":3,"mode":4},{"attributes":{"NORMAL":54,"POSITION":12},"indices":96,"material":3,"mode":4}]},{"name":"LA_Lower","primitives":[{"attributes":{"NORMAL":55,"POSITION":13},"indices":97,"material":1,"mode":4},{"attributes":{"NORMAL":56,"POSITION":14},"indices":98,"material":1,"mode":4},{"attributes":{"NORMAL":57,"POSITION":15},"indices":99,"material":1,"mode":4}]},{"name":"LA_Hand","primitives":[{"attributes":{"NORMAL":58,"POSITION":16},"indices":100,"material":1,"mode":4}]},{"name":"LA_Shoulder","primitives":[{"attributes":{"NORMAL":59,"POSITION":17},"indices":101,"material":2,"mode":4}]},{"name":"RL_Upper","primitives":[{"attributes":{"NORMAL":60,"POSITION":18},"indices":102,"material":0,"mode":4},{"attributes":{"NORMAL":61,"POSITION":19},"indices":103,"material":0,"mode":4},{"attributes":{"NORMAL":62,"POSITION":20},"indices":104,"material":0,"mode":4}]},{"name":"RL_Foot","primitives":[{"attributes":{"NORMAL":63,"POSITION":21},"indices":105,"material":1,"mode":4},{"attributes":{"NORMAL":64,"POSITION":22},"indices":106,"material":1,"mode":4},{"attributes":{"NORMAL":65,"POSITION":23},"indices":107,"material":1,"mode":4}]},{"name":"RL_Waist","primitives":[{"attributes":{"NORMAL":66,"POSITION":24},"indices":108,"material":2,"mode":4}]},{"name":"RL_Lower","primitives":[{"attributes":{"NORMAL":67,"POSITION":25},"indices":109,"material":1,"mode":4},{"attributes":{"NORMAL":68,"POSITION":26},"indices":110,"material":1,"mode":4},{"attributes":{"NORMAL":69,"POSITION":27},"indices":111,"material":1,"mode":4}]},{"name":"RA_Upper","primitives":[{"attributes":{"NORMAL":70,"POSITION":28},"indices":112,"material":3,"mode":4},{"attributes":{"NORMAL":71,"POSITION":29},"indices":113,"material":3,"mode":4},{"attributes":{"NORMAL":72,"POSITION":30},"indices":114,"material":3,"mode":4}]},{"name":"RA_Lower","primitives":[{"attributes":{"NORMAL":73,"POSITION":31},"indices":115,"material":1,"mode":4},{"attributes":{"NORMAL":74,"POSITION":32},"indices":116,"material":1,"mode":4},{"attributes":{"NORMAL":75,"POSITION":33},"indices":117,"material":1,"mode":4}]},{"name":"RA_Hand","primitives":[{"attributes":{"NORMAL":76,"POSITION":34},"indices":118,"material":1,"mode":4}]},{"name":"RA_Shoulder","primitives":[{"attributes":{"NORMAL":77,"POSITION":35},"indices":119,"material":2,"mode":4}]},{"name":"Torso","primitives":[{"attributes":{"NORMAL":78,"POSITION":36},"indices":120,"material":0,"mode":4},{"attributes":{"NORMAL":79,"POSITION":37},"indices":121,"material":0,"mode":4}]},{"name":"Neck001","primitives":[{"attributes":{"NORMAL":80,"POSITION":38},"indices":122,"material":1,"mode":4},{"attributes":{"NORMAL":81,"POSITION":39},"indices":123,"material":1,"mode":4},{"attributes":{"NORMAL":82,"POSITION":40},"indices":124,"material":1,"mode":4}]},{"name":"Skull","primitives":[{"attributes":{"NORMAL":83,"POSITION":41},"indices":125,"material":1,"mode":4}]}],"nodes":[{"children":[1,6,11,16,21,22],"name":"Human"},{"children":[2,3,4,5],"rotation":[-0.13052619222028959,7.245659195980727e-18,-2.7041168253676807e-17,0.9914448613737791],"translation":[0.108,0.08397335664838718,0.06056365655409839],"name":"LeftLeg"},{"rotation":[0.0,0.0,1.0,0.0],"translation":[-0.001,-0.031,0.0],"mesh":0,"name":"LL_Upper"},{"rotation":[0.2588190451026266,0.0,0.0,0.9659258262890399],"translation":[-0.004,-0.7428083117443001,-0.13192047106606],"mesh":1,"name":"LL_Foot"},{"mesh":2,"name":"LL_Waist"},{"rotation":[0.0,-0.2588190451026267,0.9659258262890399,0.0],"translation":[-0.001,-0.382,-0.002],"mesh":3,"name":"LL_Lower"},{"children":[7,8,9,10],"rotation":[0.4295059646243808,-0.1667205239644732,0.8743829530857161,0.15226077825295054],"translation":[0.19900000000000024,0.6171644127598842,-0.08230445634274909],"name":"LeftArm"},{"rotation":[2.7428442886333424e-14,0.13052619222003093,0.9576621969426044,-0.25660481229237316],"translation":[0.009109073857917,-0.007082593378111001,0.0],"mesh":4,"name":"LA_Upper"},{"rotation":[0.9576621969424949,0.1260786200725722,-0.09904576054123514,-0.2391176183945438],"translation":[0.14891477466319,-0.2567601840968,0.08421067811864999],"mesh":5,"name":"LA_Lower"},{"rotation":[0.2588190451026266,0.0,0.0,0.9659258262890399],"translation":[0.196,-0.5060358983848,-0.051832704406994],"mesh":6,"name":"LA_Hand"},{"translation":[-0.003,0.0,0.0],"mesh":7,"name":"LA_Shoulder"},{"children":[12,13,14,15],"rotation":[4.471416827078745e-9,1.6808017404479828e-15,-2.4607993573200915e-15,1.0],"translation":[-0.13100073242180047,0.08907144530943948,0.035508030712260659],"name":"RightLeg"},{"rotation":[0.0,0.0,1.0,0.0],"translation":[-0.001,-0.031,0.0],"mesh":8,"name":"RL_Upper"},{"rotation":[0.2588190451026266,0.0,0.0,0.9659258262890399],"translation":[-0.004,-0.7428083117443001,-0.13192047106606],"mesh":9,"name":"RL_Foot"},{"mesh":10,"name":"RL_Waist"},{"rotation":[0.0,-0.2588190451026267,0.9659258262890399,0.0],"translation":[-0.001,-0.382,-0.002],"mesh":11,"name":"RL_Lower"},{"children":[17,18,19,20],"rotation":[0.21522975720921456,-0.1814469595349115,0.9477674688213383,0.14996658804944594],"translation":[-0.2040015258788998,0.6162012416132742,-0.08204667613640178],"name":"RightArm"},{"rotation":[2.7428442886333424e-14,0.13052619222003093,0.9576621969426044,-0.25660481229237316],"translation":[0.009109073857917,-0.007082593378111001,0.0],"mesh":12,"name":"RA_Upper"},{"rotation":[0.9576621969424949,0.1260786200725722,-0.09904576054123514,-0.2391176183945438],"translation":[0.14891477466319,-0.2567601840968,0.08421067811864999],"mesh":13,"name":"RA_Lower"},{"rotation":[0.2588190451026266,0.0,0.0,0.9659258262890399],"translation":[0.196,-0.5060358983848,-0.051832704406994],"mesh":14,"name":"RA_Hand"},{"translation":[-0.003,0.0,0.0],"mesh":15,"name":"RA_Shoulder"},{"rotation":[-0.13052619222028959,7.245659195980727e-18,-2.7041168253676807e-17,0.9914448613737791],"translation":[-5.17281580113487e-18,0.5874101808359069,-0.07743766246852639],"mesh":16,"name":"Torso"},{"children":[23,24],"rotation":[-0.25881904510298456,1.0959925783135926e-17,-5.0766872823166468e-17,0.965925826288944],"translation":[-0.004000000000000009,0.5885592898864636,-0.05001826345414747],"name":"Head"},{"mesh":17,"name":"Neck001"},{"translation":[0.0,0.17500000000000003,0.0],"mesh":18,"name":"Skull"}],"scene":0,"scenes":[{"nodes":[0]}]}