{"accessors":[{"bufferView":0,"byteOffset":0,"componentType":5126,"count":16,"max":[0.125,0.0,-0.3500000000000001],"min":[-0.125,-0.125,-0.3500000000000001],"type":"VEC3"},{"bufferView":0,"byteOffset":192,"componentType":5126,"count":30,"max":[0.125,0.0,0.35],"min":[-0.125,-0.125,-0.3500000000000001],"type":"VEC3"},{"bufferView":0,"byteOffset":552,"componentType":5126,"count":16,"max":[0.125,0.0,0.35],"min":[-0.125,-0.125,0.35],"type":"VEC3"},{"bufferView":0,"byteOffset":744,"componentType":5126,"count":15,"max":[0.12,0.0,0.34500000000000005],"min":[-0.12,-0.11912506489176647,0.34500000000000005],"type":"VEC3"},{"bufferView":0,"byteOffset":924,"componentType":5126,"count":28,"max":[0.12,0.0,0.34500000000000005],"min":[-0.12,-0.11912506489176647,-0.3450000000000001],"type":"VEC3"},{"bufferView":0,"byteOffset":1260,"componentType":5126,"count":15,"max":[0.12,0.0,-0.3450000000000001],"min":[-0.12,-0.11912506489176647,-0.3450000000000001],"type":"VEC3"},{"bufferView":0,"byteOffset":1440,"componentType":5126,"count":8,"max":[0.0,0.0,0.35],"min":[-0.125,0.0,-0.3500000000000001],"type":"VEC3"},{"bufferView":0,"byteOffset":1536,"componentType":5126,"count":8,"max":[0.125,0.0,0.35],"min":[0.0,-1.5e-17,-0.3500000000000001],"type":"VEC3"},{"bufferView":1,"byteOffset":0,"componentType":5126,"count":16,"type":"VEC3"},{"bufferView":1,"byteOffset":192,"componentType":5126,"count":30,"type":"VEC3"},{"bufferView":1,"byteOffset":552,"componentType":5126,"count":16,"type":"VEC3"},{"bufferView":1,"byteOffset":744,"componentType":5126,"count":15,"type":"VEC3"},{"bufferView":1,"byteOffset":924,"componentType":5126,"count":28,"type":"VEC3"},{"bufferView":1,"byteOffset":1260,"componentType":5126,"count":15,"type":"VEC3"},{"bufferView":1,"byteOffset":1440,"componentType":5126,"count":8,"type":"VEC3"},{"bufferView":1,"byteOffset":1536,"componentType":5126,"count":8,"type":"VEC3"},{"bufferView":2,"byteOffset":0,"componentType":5123,"count":42,"type":"SCALAR"},{"bufferView":2,"byteOffset":84,"componentType":5123,"count":84,"type":"SCALAR"},{"bufferView":2,"byteOffset":252,"componentType":5123,"count":42,"type":"SCALAR"},{"bufferView":2,"byteOffset":336,"componentType":5123,"count":39,"type":"SCALAR"},{"bufferView":2,"byteOffset":416,"componentType":5123,"count":78,"type":"SCALAR"},{"bufferView":2,"byteOffset":572,"componentType":5123,"count":39,"type":"SCALAR"},{"bufferView":2,"byteOffset":652,"componentType":5123,"count":18,"type":"SCALAR"},{"bufferView":2,"byteOffset":688,"componentType":5123,"count":18,"type":"SCALAR"}],"asset":{"generator":"Open CASCADE Technology 7.6 [dev.opencascade.org]","version":"2.0"},"bufferViews":[{"buffer":0,"byteLength":1632,"byteOffset":0,"byteStride":12,"target":34962},{"buffer":0,"byteLength":1632,"byteOffset":1632,"byteStride":12,"target":34962},{"buffer":0,"byteLength":724,"byteOffset":3264,"target":34963}],"buffers":[{"byteLength":3988,"uri":"PolluxMidBody_Lower.bin"}],"materials":[{"name":"mat_0","pbrMetallicRoughness":{"baseColorFactor":[1.0,0.4019778072834015,0.0,1.0]},"doubleSided":true}],"meshes":[{"name":"MidBody_Lower","primitives":[{"attributes":{"NORMAL":8,"POSITION":0},"indices":16,"material":0,"mode":4},{"attributes":{"NORMAL":9,"POSITION":1},"indices":17,"material":0,"mode":4},{"attributes":{"NORMAL":10,"POSITION":2},"indices":18,"material":0,"mode":4},{"attributes":{"NORMAL":11,"POSITION":3},"indices":19,"material":0,"mode":4},{"attributes":{"NORMAL":12,"POSITION":4},"indices":20,"material":0,"mode":4},{"attributes":{"NORMAL":13,"POSITION":5},"indices":21,"material":0,"mode":4},{"attributes":{"NORMAL":14,"POSITION":6},"indices":22,"material":0,"mode":4},{"attributes":{"NORMAL":15,"POSITION":7},"indices":23,"material":0,"mode":4}]}],"nodes":[{"mesh":0,"name":"MidBody_Lower"}],"scene":0,"scenes":[{"nodes":[0]}]}