{"accessors":[{"bufferView":0,"byteOffset":0,"componentType":5126,"count":593,"max":[0.125,0.1248395633963816,0.3],"min":[-0.1243586654239869,-0.1248395633963816,0.0],"type":"VEC3"},{"bufferView":0,"byteOffset":7116,"componentType":5126,"count":31,"max":[0.125,0.1248395633963816,0.0],"min":[-0.1243586654239869,-0.1248395633963816,0.0],"type":"VEC3"},{"bufferView":0,"byteOffset":7488,"componentType":5126,"count":30,"max":[0.11937489000760709,0.11872094186974457,0.005],"min":[-0.11937489000760709,-0.11872094186974455,0.005],"type":"VEC3"},{"bufferView":0,"byteOffset":7848,"componentType":5126,"count":534,"max":[0.11937489000760709,0.11872094186974457,0.295],"min":[-0.11937489000760709,-0.11872094186974455,0.005],"type":"VEC3"},{"bufferView":1,"byteOffset":0,"componentType":5126,"count":593,"type":"VEC3"},{"bufferView":1,"byteOffset":7116,"componentType":5126,"count":31,"type":"VEC3"},{"bufferView":1,"byteOffset":7488,"componentType":5126,"count":30,"type":"VEC3"},{"bufferView":1,"byteOffset":7848,"componentType":5126,"count":534,"type":"VEC3"},{"bufferView":2,"byteOffset":0,"componentType":5123,"count":3402,"type":"SCALAR"},{"bufferView":2,"byteOffset":6804,"componentType":5123,"count":87,"type":"SCALAR"},{"bufferView":2,"byteOffset":6980,"componentType":5123,"count":84,"type":"SCALAR"},{"bufferView":2,"byteOffset":7148,"componentType":5123,"count":3051,"type":"SCALAR"}],"asset":{"generator":"Open CASCADE Technology 7.6 [dev.opencascade.org]","version":"2.0"},"bufferViews":[{"buffer":0,"byteLength":14256,"byteOffset":0,"byteStride":12,"target":34962},{"buffer":0,"byteLength":14256,"byteOffset":14256,"byteStride":12,"target":34962},{"buffer":0,"byteLength":13252,"byteOffset":28512,"target":34963}],"buffers":[{"byteLength":41764,"uri":"PolluxForeBody.bin"}],"materials":[{"name":"mat_0","pbrMetallicRoughness":{"baseColorFactor":[1.0,0.4019778072834015,0.0,1.0]},"doubleSided":true}],"meshes":[{"name":"ForeBody_LowerNUpper","primitives":[{"attributes":{"NORMAL":4,"POSITION":0},"indices":8,"material":0,"mode":4},{"attributes":{"NORMAL":5,"POSITION":1},"indices":9,"material":0,"mode":4},{"attributes":{"NORMAL":6,"POSITION":2},"indices":10,"material":0,"mode":4},{"attributes":{"NORMAL":7,"POSITION":3},"indices":11,"material":0,"mode":4}]}],"nodes":[{"children":[1],"name":"ForeBody"},{"translation":[0.0,0.0,-2.4e-17],"mesh":0,"name":"ForeBody_LowerNUpper"}],"scene":0,"scenes":[{"nodes":[0]}]}