{"accessors":[{"bufferView":0,"byteOffset":0,"componentType":5126,"count":217,"max":[0.125,0.0,-7.660538869913581e-18],"min":[-0.125,-0.125,-0.125],"type":"VEC3"},{"bufferView":0,"byteOffset":2604,"componentType":5126,"count":22,"max":[0.125,0.0,0.0],"min":[-0.125,-0.125,-7.993605777301128e-18],"type":"VEC3"},{"bufferView":0,"byteOffset":2868,"componentType":5126,"count":21,"max":[0.11989578808281799,0.0,-0.005000000000000007],"min":[-0.11989578808281799,-0.1194862831801503,-0.005000000000000007],"type":"VEC3"},{"bufferView":0,"byteOffset":3120,"componentType":5126,"count":216,"max":[0.11989578808281799,0.0,-0.005000000000000007],"min":[-0.11989578808281799,-0.1194862831801503,-0.12],"type":"VEC3"},{"bufferView":0,"byteOffset":5712,"componentType":5126,"count":24,"max":[8e-18,0.0,0.0],"min":[-0.125,0.0,-0.125],"type":"VEC3"},{"bufferView":0,"byteOffset":6000,"componentType":5126,"count":24,"max":[0.125,0.0,0.0],"min":[0.0,-1.5e-17,-0.125],"type":"VEC3"},{"bufferView":0,"byteOffset":6288,"componentType":5126,"count":44,"max":[0.125,0.065,0.0],"min":[-0.125,0.0,-0.12465047464764752],"type":"VEC3"},{"bufferView":0,"byteOffset":6816,"componentType":5126,"count":4,"max":[0.125,0.065,0.0],"min":[-0.125,0.0,-1.5e-17],"type":"VEC3"},{"bufferView":0,"byteOffset":6864,"componentType":5126,"count":22,"max":[0.125,0.0,0.0],"min":[-0.125,0.0,-0.12465047464764752],"type":"VEC3"},{"bufferView":0,"byteOffset":7128,"componentType":5126,"count":22,"max":[0.125,0.065,0.0],"min":[-0.125,0.065,-0.12465047464764752],"type":"VEC3"},{"bufferView":1,"byteOffset":0,"componentType":5126,"count":217,"type":"VEC3"},{"bufferView":1,"byteOffset":2604,"componentType":5126,"count":22,"type":"VEC3"},{"bufferView":1,"byteOffset":2868,"componentType":5126,"count":21,"type":"VEC3"},{"bufferView":1,"byteOffset":3120,"componentType":5126,"count":216,"type":"VEC3"},{"bufferView":1,"byteOffset":5712,"componentType":5126,"count":24,"type":"VEC3"},{"bufferView":1,"byteOffset":6000,"componentType":5126,"count":24,"type":"VEC3"},{"bufferView":1,"byteOffset":6288,"componentType":5126,"count":44,"type":"VEC3"},{"bufferView":1,"byteOffset":6816,"componentType":5126,"count":4,"type":"VEC3"},{"bufferView":1,"byteOffset":6864,"componentType":5126,"count":22,"type":"VEC3"},{"bufferView":1,"byteOffset":7128,"componentType":5126,"count":22,"type":"VEC3"},{"bufferView":2,"byteOffset":0,"componentType":5123,"count":1173,"type":"SCALAR"},{"bufferView":2,"byteOffset":2348,"componentType":5123,"count":60,"type":"SCALAR"},{"bufferView":2,"byteOffset":2468,"componentType":5123,"count":57,"type":"SCALAR"},{"bufferView":2,"byteOffset":2584,"componentType":5123,"count":1170,"type":"SCALAR"},{"bufferView":2,"byteOffset":4924,"componentType":5123,"count":66,"type":"SCALAR"},{"bufferView":2,"byteOffset":5056,"componentType":5123,"count":66,"type":"SCALAR"},{"bufferView":2,"byteOffset":5188,"componentType":5123,"count":126,"type":"SCALAR"},{"bufferView":2,"byteOffset":5440,"componentType":5123,"count":6,"type":"SCALAR"},{"bufferView":2,"byteOffset":5452,"componentType":5123,"count":60,"type":"SCALAR"},{"bufferView":2,"byteOffset":5572,"componentType":5123,"count":60,"type":"SCALAR"}],"asset":{"generator":"Open CASCADE Technology 7.6 [dev.opencascade.org]","version":"2.0"},"bufferViews":[{"buffer":0,"byteLength":7392,"byteOffset":0,"byteStride":12,"target":34962},{"buffer":0,"byteLength":7392,"byteOffset":7392,"byteStride":12,"target":34962},{"buffer":0,"byteLength":5692,"byteOffset":14784,"target":34963}],"buffers":[{"byteLength":20476,"uri":"RearBody.bin"}],"materials":[{"name":"mat_0","pbrMetallicRoughness":{"baseColorFactor":[1.0,0.4019778072834015,0.0,1.0]},"doubleSided":true}],"meshes":[{"name":"RearBody_Lower","primitives":[{"attributes":{"NORMAL":10,"POSITION":0},"indices":20,"material":0,"mode":4},{"attributes":{"NORMAL":11,"POSITION":1},"indices":21,"material":0,"mode":4},{"attributes":{"NORMAL":12,"POSITION":2},"indices":22,"material":0,"mode":4},{"attributes":{"NORMAL":13,"POSITION":3},"indices":23,"material":0,"mode":4},{"attributes":{"NORMAL":14,"POSITION":4},"indices":24,"material":0,"mode":4},{"attributes":{"NORMAL":15,"POSITION":5},"indices":25,"material":0,"mode":4}]},{"name":"RearBoy_Upper","primitives":[{"attributes":{"NORMAL":16,"POSITION":6},"indices":26,"material":0,"mode":4},{"attributes":{"NORMAL":17,"POSITION":7},"indices":27,"material":0,"mode":4},{"attributes":{"NORMAL":18,"POSITION":8},"indices":28,"material":0,"mode":4},{"attributes":{"NORMAL":19,"POSITION":9},"indices":29,"material":0,"mode":4}]}],"nodes":[{"children":[1,2],"name":"RearBody"},{"translation":[0.0,0.0,-0.000199999999999971],"mesh":0,"name":"RearBody_Lower"},{"mesh":1,"name":"RearBoy_Upper"}],"scene":0,"scenes":[{"nodes":[0]}]}