{"accessors":[{"bufferView":0,"byteOffset":0,"componentType":5126,"count":55,"max":[0.02500000000000004,0.022500000000000014,0.0225],"min":[-1.9564097587159436e-17,-0.022499999999999993,-0.02250000000000001],"type":"VEC3"},{"bufferView":0,"byteOffset":660,"componentType":5126,"count":52,"max":[1.9564097587159439e-17,0.022335949667206216,0.0225],"min":[-1.9564097587159436e-17,-0.02233594966720622,-0.02250000000000001],"type":"VEC3"},{"bufferView":0,"byteOffset":1284,"componentType":5126,"count":29,"max":[0.050000000000000027,0.02250000000000003,4.6e-17],"min":[0.02499999999999999,-0.022499999999999993,-0.02249999999999999],"type":"VEC3"},{"bufferView":0,"byteOffset":1632,"componentType":5126,"count":54,"max":[0.02500000000000004,0.022500000000000146,0.3223359496672063],"min":[0.024999999999999829,-0.022499999999999993,8e-18],"type":"VEC3"},{"bufferView":0,"byteOffset":2280,"componentType":5126,"count":54,"max":[0.025000000000000023,0.004963544370490271,0.005],"min":[-4.347577241590985e-18,-0.004963544370490293,-0.005000000000000002],"type":"VEC3"},{"bufferView":0,"byteOffset":2928,"componentType":5126,"count":4,"max":[0.050000000000000027,-0.022499999999999848,0.3000000000000001],"min":[0.02499999999999986,-0.022499999999999993,2.6e-17],"type":"VEC3"},{"bufferView":0,"byteOffset":2976,"componentType":5126,"count":4,"max":[0.049999999999999999,0.02250000000000016,0.3000000000000001],"min":[0.024999999999999829,0.022500000000000014,8e-18],"type":"VEC3"},{"bufferView":0,"byteOffset":3024,"componentType":5126,"count":80,"max":[0.050000000000000027,0.02250000000000016,0.3223359496672063],"min":[0.04999999999999982,-0.02249999999999998,-0.022335949667206219],"type":"VEC3"},{"bufferView":0,"byteOffset":3984,"componentType":5126,"count":28,"max":[0.049999999999999957,0.02250000000000016,0.3223359496672063],"min":[0.024999999999999829,-0.02249999999999986,0.30000000000000007],"type":"VEC3"},{"bufferView":0,"byteOffset":4320,"componentType":5126,"count":54,"max":[0.04999999999999995,0.004963544370490212,0.3050000000000001],"min":[0.024999999999999846,-0.004963544370490339,0.29500000000000006],"type":"VEC3"},{"bufferView":0,"byteOffset":4968,"componentType":5126,"count":54,"max":[0.05000000000000001,0.004963544370490247,0.005000000000000001],"min":[0.025000000000000013,-0.004963544370490297,-0.004999999999999983],"type":"VEC3"},{"bufferView":1,"byteOffset":0,"componentType":5126,"count":55,"type":"VEC3"},{"bufferView":1,"byteOffset":660,"componentType":5126,"count":52,"type":"VEC3"},{"bufferView":1,"byteOffset":1284,"componentType":5126,"count":29,"type":"VEC3"},{"bufferView":1,"byteOffset":1632,"componentType":5126,"count":54,"type":"VEC3"},{"bufferView":1,"byteOffset":2280,"componentType":5126,"count":54,"type":"VEC3"},{"bufferView":1,"byteOffset":2928,"componentType":5126,"count":4,"type":"VEC3"},{"bufferView":1,"byteOffset":2976,"componentType":5126,"count":4,"type":"VEC3"},{"bufferView":1,"byteOffset":3024,"componentType":5126,"count":80,"type":"VEC3"},{"bufferView":1,"byteOffset":3984,"componentType":5126,"count":28,"type":"VEC3"},{"bufferView":1,"byteOffset":4320,"componentType":5126,"count":54,"type":"VEC3"},{"bufferView":1,"byteOffset":4968,"componentType":5126,"count":54,"type":"VEC3"},{"bufferView":2,"byteOffset":0,"componentType":5123,"count":159,"type":"SCALAR"},{"bufferView":2,"byteOffset":320,"componentType":5123,"count":156,"type":"SCALAR"},{"bufferView":2,"byteOffset":632,"componentType":5123,"count":81,"type":"SCALAR"},{"bufferView":2,"byteOffset":796,"componentType":5123,"count":162,"type":"SCALAR"},{"bufferView":2,"byteOffset":1120,"componentType":5123,"count":156,"type":"SCALAR"},{"bufferView":2,"byteOffset":1432,"componentType":5123,"count":6,"type":"SCALAR"},{"bufferView":2,"byteOffset":1444,"componentType":5123,"count":6,"type":"SCALAR"},{"bufferView":2,"byteOffset":1456,"componentType":5123,"count":246,"type":"SCALAR"},{"bufferView":2,"byteOffset":1948,"componentType":5123,"count":78,"type":"SCALAR"},{"bufferView":2,"byteOffset":2104,"componentType":5123,"count":156,"type":"SCALAR"},{"bufferView":2,"byteOffset":2416,"componentType":5123,"count":156,"type":"SCALAR"}],"asset":{"generator":"Open CASCADE Technology 7.6 [dev.opencascade.org]","version":"2.0"},"bufferViews":[{"buffer":0,"byteLength":5616,"byteOffset":0,"byteStride":12,"target":34962},{"buffer":0,"byteLength":5616,"byteOffset":5616,"byteStride":12,"target":34962},{"buffer":0,"byteLength":2728,"byteOffset":11232,"target":34963}],"buffers":[{"byteLength":13960,"uri":"SensorBracketA.bin"}],"materials":[{"name":"mat_0","pbrMetallicRoughness":{"baseColorFactor":[0.6038273572921753,0.6038273572921753,0.6038273572921753,1.0]},"doubleSided":true}],"meshes":[{"name":"SensorBracketA","primitives":[{"attributes":{"NORMAL":11,"POSITION":0},"indices":22,"material":0,"mode":4},{"attributes":{"NORMAL":12,"POSITION":1},"indices":23,"material":0,"mode":4},{"attributes":{"NORMAL":13,"POSITION":2},"indices":24,"material":0,"mode":4},{"attributes":{"NORMAL":14,"POSITION":3},"indices":25,"material":0,"mode":4},{"attributes":{"NORMAL":15,"POSITION":4},"indices":26,"material":0,"mode":4},{"attributes":{"NORMAL":16,"POSITION":5},"indices":27,"material":0,"mode":4},{"attributes":{"NORMAL":17,"POSITION":6},"indices":28,"material":0,"mode":4},{"attributes":{"NORMAL":18,"POSITION":7},"indices":29,"material":0,"mode":4},{"attributes":{"NORMAL":19,"POSITION":8},"indices":30,"material":0,"mode":4},{"attributes":{"NORMAL":20,"POSITION":9},"indices":31,"material":0,"mode":4},{"attributes":{"NORMAL":21,"POSITION":10},"indices":32,"material":0,"mode":4}]}],"nodes":[{"mesh":0,"name":"SensorBracketA"}],"scene":0,"scenes":[{"nodes":[0]}]}