{"accessors":[{"bufferView":0,"byteOffset":0,"componentType":5126,"count":16,"max":[-0.015,0.03,-0.035],"min":[-0.0175,0.0,-0.0375],"type":"VEC3"},{"bufferView":0,"byteOffset":192,"componentType":5126,"count":5,"max":[0.015,0.03,-0.0375],"min":[-0.015,0.0,-0.0375],"type":"VEC3"},{"bufferView":0,"byteOffset":252,"componentType":5126,"count":5,"max":[-0.0175,0.03,0.035],"min":[-0.0175,0.0,-0.035],"type":"VEC3"},{"bufferView":0,"byteOffset":312,"componentType":5126,"count":32,"max":[0.0175,0.0,0.0375],"min":[-0.0175,0.0,-0.0375],"type":"VEC3"},{"bufferView":0,"byteOffset":696,"componentType":5126,"count":16,"max":[-0.015,0.035,-0.035],"min":[-0.0175,0.03,-0.0375],"type":"VEC3"},{"bufferView":0,"byteOffset":888,"componentType":5126,"count":16,"max":[0.0175,0.03,-0.035],"min":[0.015,0.0,-0.0375],"type":"VEC3"},{"bufferView":0,"byteOffset":1080,"componentType":5126,"count":4,"max":[-0.0025,0.035,-0.0375],"min":[-0.015,0.03,-0.0375],"type":"VEC3"},{"bufferView":0,"byteOffset":1128,"componentType":5126,"count":48,"max":[0.0175,0.03,0.0375],"min":[-0.0175,0.03,-0.0375],"type":"VEC3"},{"bufferView":0,"byteOffset":1704,"componentType":5126,"count":16,"max":[-0.015,0.03,0.0375],"min":[-0.0175,0.0,0.035],"type":"VEC3"},{"bufferView":0,"byteOffset":1896,"componentType":5126,"count":4,"max":[-0.0175,0.035,-0.002499999999999999],"min":[-0.0175,0.03,-0.035],"type":"VEC3"},{"bufferView":0,"byteOffset":1944,"componentType":5126,"count":4,"max":[0.015,0.03,0.0375],"min":[-0.015,0.0,0.0375],"type":"VEC3"},{"bufferView":0,"byteOffset":1992,"componentType":5126,"count":16,"max":[0.0175,0.03,0.0375],"min":[0.015,0.0,0.035],"type":"VEC3"},{"bufferView":0,"byteOffset":2184,"componentType":5126,"count":4,"max":[0.0175,0.03,0.035],"min":[0.0175,0.0,-0.035],"type":"VEC3"},{"bufferView":0,"byteOffset":2232,"componentType":5126,"count":32,"max":[0.0,0.035,0.0],"min":[-0.0175,0.035,-0.0375],"type":"VEC3"},{"bufferView":0,"byteOffset":2616,"componentType":5126,"count":16,"max":[0.0,0.035,-0.035],"min":[-0.0025,0.03,-0.0375],"type":"VEC3"},{"bufferView":0,"byteOffset":2808,"componentType":5126,"count":16,"max":[-0.014999999999999998,0.035,0.0],"min":[-0.0175,0.03,-0.002499999999999999],"type":"VEC3"},{"bufferView":0,"byteOffset":3000,"componentType":5126,"count":4,"max":[-0.0025,0.035,0.0],"min":[-0.014999999999999998,0.03,0.0],"type":"VEC3"},{"bufferView":0,"byteOffset":3048,"componentType":5126,"count":16,"max":[0.0,0.035,0.0],"min":[-0.0025,0.03,-0.0025],"type":"VEC3"},{"bufferView":0,"byteOffset":3240,"componentType":5126,"count":4,"max":[0.0,0.035,-0.0025],"min":[0.0,0.03,-0.035],"type":"VEC3"},{"bufferView":0,"byteOffset":3288,"componentType":5126,"count":336,"max":[0.0075,0.0075,3.552713678800501e-18],"min":[-0.007499999999999998,-0.0075,-0.0074714602356880919],"type":"VEC3"},{"bufferView":0,"byteOffset":7320,"componentType":5126,"count":19,"max":[0.0075,0.0075,3.552713678800501e-18],"min":[0.0,-0.0075,0.0],"type":"VEC3"},{"bufferView":0,"byteOffset":7548,"componentType":5126,"count":19,"max":[0.0,0.0075,3.552713678800501e-18],"min":[-0.007499999999999998,-0.0075,0.0],"type":"VEC3"},{"bufferView":0,"byteOffset":7776,"componentType":5126,"count":336,"max":[0.0075,0.0075,3.552713678800501e-18],"min":[-0.007500000000000002,-0.007499999999999998,-0.007471460235688088],"type":"VEC3"},{"bufferView":0,"byteOffset":11808,"componentType":5126,"count":19,"max":[0.0075,0.0075,3.552713678800501e-18],"min":[0.0,-0.007499999999999998,0.0],"type":"VEC3"},{"bufferView":0,"byteOffset":12036,"componentType":5126,"count":19,"max":[0.0,0.0075,3.552713678800501e-18],"min":[-0.007500000000000002,-0.007499999999999998,0.0],"type":"VEC3"},{"bufferView":1,"byteOffset":0,"componentType":5126,"count":16,"type":"VEC3"},{"bufferView":1,"byteOffset":192,"componentType":5126,"count":5,"type":"VEC3"},{"bufferView":1,"byteOffset":252,"componentType":5126,"count":5,"type":"VEC3"},{"bufferView":1,"byteOffset":312,"componentType":5126,"count":32,"type":"VEC3"},{"bufferView":1,"byteOffset":696,"componentType":5126,"count":16,"type":"VEC3"},{"bufferView":1,"byteOffset":888,"componentType":5126,"count":16,"type":"VEC3"},{"bufferView":1,"byteOffset":1080,"componentType":5126,"count":4,"type":"VEC3"},{"bufferView":1,"byteOffset":1128,"componentType":5126,"count":48,"type":"VEC3"},{"bufferView":1,"byteOffset":1704,"componentType":5126,"count":16,"type":"VEC3"},{"bufferView":1,"byteOffset":1896,"componentType":5126,"count":4,"type":"VEC3"},{"bufferView":1,"byteOffset":1944,"componentType":5126,"count":4,"type":"VEC3"},{"bufferView":1,"byteOffset":1992,"componentType":5126,"count":16,"type":"VEC3"},{"bufferView":1,"byteOffset":2184,"componentType":5126,"count":4,"type":"VEC3"},{"bufferView":1,"byteOffset":2232,"componentType":5126,"count":32,"type":"VEC3"},{"bufferView":1,"byteOffset":2616,"componentType":5126,"count":16,"type":"VEC3"},{"bufferView":1,"byteOffset":2808,"componentType":5126,"count":16,"type":"VEC3"},{"bufferView":1,"byteOffset":3000,"componentType":5126,"count":4,"type":"VEC3"},{"bufferView":1,"byteOffset":3048,"componentType":5126,"count":16,"type":"VEC3"},{"bufferView":1,"byteOffset":3240,"componentType":5126,"count":4,"type":"VEC3"},{"bufferView":1,"byteOffset":3288,"componentType":5126,"count":336,"type":"VEC3"},{"bufferView":1,"byteOffset":7320,"componentType":5126,"count":19,"type":"VEC3"},{"bufferView":1,"byteOffset":7548,"componentType":5126,"count":19,"type":"VEC3"},{"bufferView":1,"byteOffset":7776,"componentType":5126,"count":336,"type":"VEC3"},{"bufferView":1,"byteOffset":11808,"componentType":5126,"count":19,"type":"VEC3"},{"bufferView":1,"byteOffset":12036,"componentType":5126,"count":19,"type":"VEC3"},{"bufferView":2,"byteOffset":0,"componentType":5123,"count":42,"type":"SCALAR"},{"bufferView":2,"byteOffset":84,"componentType":5123,"count":9,"type":"SCALAR"},{"bufferView":2,"byteOffset":104,"componentType":5123,"count":9,"type":"SCALAR"},{"bufferView":2,"byteOffset":124,"componentType":5123,"count":90,"type":"SCALAR"},{"bufferView":2,"byteOffset":304,"componentType":5123,"count":42,"type":"SCALAR"},{"bufferView":2,"byteOffset":388,"componentType":5123,"count":42,"type":"SCALAR"},{"bufferView":2,"byteOffset":472,"componentType":5123,"count":6,"type":"SCALAR"},{"bufferView":2,"byteOffset":484,"componentType":5123,"count":138,"type":"SCALAR"},{"bufferView":2,"byteOffset":760,"componentType":5123,"count":42,"type":"SCALAR"},{"bufferView":2,"byteOffset":844,"componentType":5123,"count":6,"type":"SCALAR"},{"bufferView":2,"byteOffset":856,"componentType":5123,"count":6,"type":"SCALAR"},{"bufferView":2,"byteOffset":868,"componentType":5123,"count":42,"type":"SCALAR"},{"bufferView":2,"byteOffset":952,"componentType":5123,"count":6,"type":"SCALAR"},{"bufferView":2,"byteOffset":964,"componentType":5123,"count":90,"type":"SCALAR"},{"bufferView":2,"byteOffset":1144,"componentType":5123,"count":42,"type":"SCALAR"},{"bufferView":2,"byteOffset":1228,"componentType":5123,"count":42,"type":"SCALAR"},{"bufferView":2,"byteOffset":1312,"componentType":5123,"count":6,"type":"SCALAR"},{"bufferView":2,"byteOffset":1324,"componentType":5123,"count":42,"type":"SCALAR"},{"bufferView":2,"byteOffset":1408,"componentType":5123,"count":6,"type":"SCALAR"},{"bufferView":2,"byteOffset":1420,"componentType":5123,"count":1896,"type":"SCALAR"},{"bufferView":2,"byteOffset":5212,"componentType":5123,"count":51,"type":"SCALAR"},{"bufferView":2,"byteOffset":5316,"componentType":5123,"count":51,"type":"SCALAR"},{"bufferView":2,"byteOffset":5420,"componentType":5123,"count":1896,"type":"SCALAR"},{"bufferView":2,"byteOffset":9212,"componentType":5123,"count":51,"type":"SCALAR"},{"bufferView":2,"byteOffset":9316,"componentType":5123,"count":51,"type":"SCALAR"}],"asset":{"generator":"Open CASCADE Technology 7.6 [dev.opencascade.org]","version":"2.0"},"bufferViews":[{"buffer":0,"byteLength":12264,"byteOffset":0,"byteStride":12,"target":34962},{"buffer":0,"byteLength":12264,"byteOffset":12264,"byteStride":12,"target":34962},{"buffer":0,"byteLength":9420,"byteOffset":24528,"target":34963}],"buffers":[{"byteLength":33948,"uri":"SensorCamera.bin"}],"materials":[{"name":"mat_0","pbrMetallicRoughness":{"baseColorFactor":[0.0,0.0,0.0,1.0]},"doubleSided":true},{"name":"mat_1","pbrMetallicRoughness":{"baseColorFactor":[1.0,1.0,0.21223075687885285,1.0]},"doubleSided":true},{"name":"mat_2","pbrMetallicRoughness":{"baseColorFactor":[1.0,0.09084171801805496,0.0,1.0]},"doubleSided":true}],"meshes":[{"name":"CameraBody","primitives":[{"attributes":{"NORMAL":25,"POSITION":0},"indices":50,"material":0,"mode":4},{"attributes":{"NORMAL":26,"POSITION":1},"indices":51,"material":0,"mode":4},{"attributes":{"NORMAL":27,"POSITION":2},"indices":52,"material":0,"mode":4},{"attributes":{"NORMAL":28,"POSITION":3},"indices":53,"material":0,"mode":4},{"attributes":{"NORMAL":29,"POSITION":4},"indices":54,"material":0,"mode":4},{"attributes":{"NORMAL":30,"POSITION":5},"indices":55,"material":0,"mode":4},{"attributes":{"NORMAL":31,"POSITION":6},"indices":56,"material":0,"mode":4},{"attributes":{"NORMAL":32,"POSITION":7},"indices":57,"material":0,"mode":4},{"attributes":{"NORMAL":33,"POSITION":8},"indices":58,"material":0,"mode":4},{"attributes":{"NORMAL":34,"POSITION":9},"indices":59,"material":0,"mode":4},{"attributes":{"NORMAL":35,"POSITION":10},"indices":60,"material":0,"mode":4},{"attributes":{"NORMAL":36,"POSITION":11},"indices":61,"material":0,"mode":4},{"attributes":{"NORMAL":37,"POSITION":12},"indices":62,"material":0,"mode":4},{"attributes":{"NORMAL":38,"POSITION":13},"indices":63,"material":0,"mode":4},{"attributes":{"NORMAL":39,"POSITION":14},"indices":64,"material":0,"mode":4},{"attributes":{"NORMAL":40,"POSITION":15},"indices":65,"material":0,"mode":4},{"attributes":{"NORMAL":41,"POSITION":16},"indices":66,"material":0,"mode":4},{"attributes":{"NORMAL":42,"POSITION":17},"indices":67,"material":0,"mode":4},{"attributes":{"NORMAL":43,"POSITION":18},"indices":68,"material":0,"mode":4}]},{"name":"CameraLens1","primitives":[{"attributes":{"NORMAL":44,"POSITION":19},"indices":69,"material":1,"mode":4},{"attributes":{"NORMAL":45,"POSITION":20},"indices":70,"material":1,"mode":4},{"attributes":{"NORMAL":46,"POSITION":21},"indices":71,"material":1,"mode":4}]},{"name":"CameraLens2","primitives":[{"attributes":{"NORMAL":47,"POSITION":22},"indices":72,"material":2,"mode":4},{"attributes":{"NORMAL":48,"POSITION":23},"indices":73,"material":2,"mode":4},{"attributes":{"NORMAL":49,"POSITION":24},"indices":74,"material":2,"mode":4}]}],"nodes":[{"children":[1,2,3],"name":"SensorCamera"},{"mesh":0,"name":"CameraBody"},{"rotation":[0.7071067811865475,0.0,0.0,0.7071067811865476],"translation":[-0.008799999999999999,0.030299999999999998,-0.028700000000000005],"mesh":1,"name":"CameraLens1"},{"rotation":[0.7071067811865475,0.0,0.0,0.7071067811865476],"translation":[-0.0086,0.030300000000000168,-0.008899999999999986],"mesh":2,"name":"CameraLens2"}],"scene":0,"scenes":[{"nodes":[0]}]}