{"accessors":[{"bufferView":0,"byteOffset":0,"componentType":5126,"count":148,"max":[0.06393555625864417,0.064,4.877190579134095e-17],"min":[-0.06393555625864411,-0.06374235481569535,-0.06200000000000004],"type":"VEC3"},{"bufferView":0,"byteOffset":1776,"componentType":5126,"count":69,"max":[0.06393555625864417,0.064,-0.06199999999999996],"min":[-0.06393555625864411,-0.06374235481569535,-0.06200000000000004],"type":"VEC3"},{"bufferView":0,"byteOffset":2604,"componentType":5126,"count":143,"max":[0.05874831640140707,0.059000000000000007,4.6164941468652387e-17],"min":[-0.05874831640140702,-0.05900000000000004,-0.062000000000000037],"type":"VEC3"},{"bufferView":0,"byteOffset":4320,"componentType":5126,"count":65,"max":[0.05593657099424845,0.056,4.877190579134095e-17],"min":[-0.055936570994248448,-0.05574642766409274,-2.5000000000000004e-17],"type":"VEC3"},{"bufferView":0,"byteOffset":5100,"componentType":5126,"count":64,"max":[0.026965345693618426,0.027,0.05699999999999002],"min":[-0.026965345693618443,-0.02686147173158117,-1.2e-17],"type":"VEC3"},{"bufferView":0,"byteOffset":5868,"componentType":5126,"count":31,"max":[0.026965345693618426,0.027,2.3544161322258014e-17],"min":[-0.026965345693618426,-0.02686147173158117,-1.2e-17],"type":"VEC3"},{"bufferView":0,"byteOffset":6240,"componentType":5126,"count":30,"max":[0.023868525488837546,0.023999999999999,0.06000000000000002],"min":[-0.02386852548883759,-0.02399999999999897,0.059999999999999987],"type":"VEC3"},{"bufferView":0,"byteOffset":6600,"componentType":5126,"count":303,"max":[0.026965345693618409,0.027,0.06000000000000002],"min":[-0.026965345693618443,-0.026861471731581139,0.05699999999998999],"type":"VEC3"},{"bufferView":0,"byteOffset":10236,"componentType":5126,"count":31,"max":[0.009487806818125002,0.0095,7.105427357601002e-18],"min":[-0.009487806818125002,-0.009451258572223004,0.0],"type":"VEC3"},{"bufferView":0,"byteOffset":10608,"componentType":5126,"count":787,"max":[0.009487806818125002,0.0095,7.105427357601002e-18],"min":[-0.009487806818125002,-0.009451258572223004,-0.024],"type":"VEC3"},{"bufferView":0,"byteOffset":20052,"componentType":5126,"count":4,"max":[-0.009999999999999999,0.035,0.0020000000000000019],"min":[-0.016171444324789998,0.0,0.0],"type":"VEC3"},{"bufferView":0,"byteOffset":20100,"componentType":5126,"count":20,"max":[0.016171444324796,0.03967175101731339,0.0020000000000000089],"min":[-0.016171444324789998,0.035,0.0],"type":"VEC3"},{"bufferView":0,"byteOffset":20340,"componentType":5126,"count":4,"max":[0.016171444324796,0.035,0.0020000000000000019],"min":[0.01,0.0,0.0],"type":"VEC3"},{"bufferView":0,"byteOffset":20388,"componentType":5126,"count":4,"max":[0.01,0.0,0.0020000000000000019],"min":[-0.010000000000000002,0.0,0.0],"type":"VEC3"},{"bufferView":0,"byteOffset":20436,"componentType":5126,"count":12,"max":[0.016171444324796,0.03967175101731339,8.881784197001253e-18],"min":[-0.016171444324789998,0.0,0.0],"type":"VEC3"},{"bufferView":0,"byteOffset":20580,"componentType":5126,"count":12,"max":[0.016171444324796,0.03967175101731339,0.0020000000000000089],"min":[-0.016171444324789998,0.0,0.002],"type":"VEC3"},{"bufferView":0,"byteOffset":20724,"componentType":5126,"count":4,"max":[-0.01,0.03500000000000002,0.0020000000000000019],"min":[-0.016171444324790005,5.958775139980333e-19,-5.3290705182007518e-18],"type":"VEC3"},{"bufferView":0,"byteOffset":20772,"componentType":5126,"count":18,"max":[0.016171444324796,0.03973175137747,0.002000000000000007],"min":[-0.016171444324790005,0.035,-5.3290705182007518e-18],"type":"VEC3"},{"bufferView":0,"byteOffset":20988,"componentType":5126,"count":4,"max":[0.016171444324796,0.03500000000000001,0.0020000000000000019],"min":[0.01,-1.6245685352522799e-18,-1.7763568394002506e-18],"type":"VEC3"},{"bufferView":0,"byteOffset":21036,"componentType":5126,"count":4,"max":[0.01,1.039966723848096e-18,0.0020000000000000019],"min":[-0.01,-1.6245685352522799e-18,1.7763568394002506e-18],"type":"VEC3"},{"bufferView":0,"byteOffset":21084,"componentType":5126,"count":11,"max":[0.016171444324796,0.03973175137747,8.881784197001253e-18],"min":[-0.016171444324790005,-1.6245685352522799e-18,-5.3290705182007518e-18],"type":"VEC3"},{"bufferView":0,"byteOffset":21216,"componentType":5126,"count":11,"max":[0.016171444324796,0.03973175137747,0.002000000000000007],"min":[-0.016171444324790005,-1.1804793254022173e-18,0.0019999999999999985],"type":"VEC3"},{"bufferView":0,"byteOffset":21348,"componentType":5126,"count":4,"max":[-0.01,0.035,0.002000000000000001],"min":[-0.01617144432479,-2.220446049250313e-19,0.0],"type":"VEC3"},{"bufferView":0,"byteOffset":21396,"componentType":5126,"count":18,"max":[0.016171444324796004,0.03973175137747,0.002000000000000008],"min":[-0.01617144432479,0.035,8.881784197001253e-19],"type":"VEC3"},{"bufferView":0,"byteOffset":21612,"componentType":5126,"count":4,"max":[0.016171444324796004,0.035,0.002000000000000001],"min":[0.01,-2.220446049250313e-19,-2.6645352591003759e-18],"type":"VEC3"},{"bufferView":0,"byteOffset":21660,"componentType":5126,"count":4,"max":[0.010000000000000004,-2.220446049250313e-19,0.001999999999999999],"min":[-0.010000000000000002,-2.220446049250313e-19,-2.6645352591003759e-18],"type":"VEC3"},{"bufferView":0,"byteOffset":21708,"componentType":5126,"count":11,"max":[0.016171444324796004,0.039731751377469998,1.0658141036401503e-17],"min":[-0.01617144432479,-2.220446049250313e-19,-2.6645352591003759e-18],"type":"VEC3"},{"bufferView":0,"byteOffset":21840,"componentType":5126,"count":11,"max":[0.016171444324796,0.03973175137747,0.002000000000000008],"min":[-0.01617144432479,-2.220446049250313e-19,0.0019999999999999976],"type":"VEC3"},{"bufferView":0,"byteOffset":21972,"componentType":5126,"count":64,"max":[0.0095,0.009487806818125009,3.552713678800501e-18],"min":[-0.009451258572223004,-0.009487806818125002,-0.024000000000000005],"type":"VEC3"},{"bufferView":0,"byteOffset":22740,"componentType":5126,"count":31,"max":[0.0095,0.009487806818125002,3.552713678800501e-18],"min":[-0.009451258572223004,-0.009487806818125002,-3.552713678800501e-18],"type":"VEC3"},{"bufferView":0,"byteOffset":23112,"componentType":5126,"count":31,"max":[0.0095,0.009487806818125009,-0.023999999999999998],"min":[-0.009451258572223004,-0.009487806818124995,-0.024000000000000005],"type":"VEC3"},{"bufferView":0,"byteOffset":23484,"componentType":5126,"count":4,"max":[-0.022,0.018000000000000003,0.03],"min":[-0.022,0.0,-0.03],"type":"VEC3"},{"bufferView":0,"byteOffset":23532,"componentType":5126,"count":4,"max":[0.022,0.018000000000000003,0.03],"min":[-0.022,0.0,0.03],"type":"VEC3"},{"bufferView":0,"byteOffset":23580,"componentType":5126,"count":4,"max":[0.022,0.018000000000000003,0.03],"min":[0.022,0.0,-0.03],"type":"VEC3"},{"bufferView":0,"byteOffset":23628,"componentType":5126,"count":4,"max":[0.022,0.018000000000000003,-0.03],"min":[-0.022,0.0,-0.03],"type":"VEC3"},{"bufferView":0,"byteOffset":23676,"componentType":5126,"count":4,"max":[0.022,0.0,0.03],"min":[-0.022,0.0,-0.03],"type":"VEC3"},{"bufferView":0,"byteOffset":23724,"componentType":5126,"count":4,"max":[0.022,0.018000000000000003,0.03],"min":[-0.022,0.018000000000000003,-0.03],"type":"VEC3"},{"bufferView":1,"byteOffset":0,"componentType":5126,"count":148,"type":"VEC3"},{"bufferView":1,"byteOffset":1776,"componentType":5126,"count":69,"type":"VEC3"},{"bufferView":1,"byteOffset":2604,"componentType":5126,"count":143,"type":"VEC3"},{"bufferView":1,"byteOffset":4320,"componentType":5126,"count":65,"type":"VEC3"},{"bufferView":1,"byteOffset":5100,"componentType":5126,"count":64,"type":"VEC3"},{"bufferView":1,"byteOffset":5868,"componentType":5126,"count":31,"type":"VEC3"},{"bufferView":1,"byteOffset":6240,"componentType":5126,"count":30,"type":"VEC3"},{"bufferView":1,"byteOffset":6600,"componentType":5126,"count":303,"type":"VEC3"},{"bufferView":1,"byteOffset":10236,"componentType":5126,"count":31,"type":"VEC3"},{"bufferView":1,"byteOffset":10608,"componentType":5126,"count":787,"type":"VEC3"},{"bufferView":1,"byteOffset":20052,"componentType":5126,"count":4,"type":"VEC3"},{"bufferView":1,"byteOffset":20100,"componentType":5126,"count":20,"type":"VEC3"},{"bufferView":1,"byteOffset":20340,"componentType":5126,"count":4,"type":"VEC3"},{"bufferView":1,"byteOffset":20388,"componentType":5126,"count":4,"type":"VEC3"},{"bufferView":1,"byteOffset":20436,"componentType":5126,"count":12,"type":"VEC3"},{"bufferView":1,"byteOffset":20580,"componentType":5126,"count":12,"type":"VEC3"},{"bufferView":1,"byteOffset":20724,"componentType":5126,"count":4,"type":"VEC3"},{"bufferView":1,"byteOffset":20772,"componentType":5126,"count":18,"type":"VEC3"},{"bufferView":1,"byteOffset":20988,"componentType":5126,"count":4,"type":"VEC3"},{"bufferView":1,"byteOffset":21036,"componentType":5126,"count":4,"type":"VEC3"},{"bufferView":1,"byteOffset":21084,"componentType":5126,"count":11,"type":"VEC3"},{"bufferView":1,"byteOffset":21216,"componentType":5126,"count":11,"type":"VEC3"},{"bufferView":1,"byteOffset":21348,"componentType":5126,"count":4,"type":"VEC3"},{"bufferView":1,"byteOffset":21396,"componentType":5126,"count":18,"type":"VEC3"},{"bufferView":1,"byteOffset":21612,"componentType":5126,"count":4,"type":"VEC3"},{"bufferView":1,"byteOffset":21660,"componentType":5126,"count":4,"type":"VEC3"},{"bufferView":1,"byteOffset":21708,"componentType":5126,"count":11,"type":"VEC3"},{"bufferView":1,"byteOffset":21840,"componentType":5126,"count":11,"type":"VEC3"},{"bufferView":1,"byteOffset":21972,"componentType":5126,"count":64,"type":"VEC3"},{"bufferView":1,"byteOffset":22740,"componentType":5126,"count":31,"type":"VEC3"},{"bufferView":1,"byteOffset":23112,"componentType":5126,"count":31,"type":"VEC3"},{"bufferView":1,"byteOffset":23484,"componentType":5126,"count":4,"type":"VEC3"},{"bufferView":1,"byteOffset":23532,"componentType":5126,"count":4,"type":"VEC3"},{"bufferView":1,"byteOffset":23580,"componentType":5126,"count":4,"type":"VEC3"},{"bufferView":1,"byteOffset":23628,"componentType":5126,"count":4,"type":"VEC3"},{"bufferView":1,"byteOffset":23676,"componentType":5126,"count":4,"type":"VEC3"},{"bufferView":1,"byteOffset":23724,"componentType":5126,"count":4,"type":"VEC3"},{"bufferView":2,"byteOffset":0,"componentType":5123,"count":654,"type":"SCALAR"},{"bufferView":2,"byteOffset":1308,"componentType":5123,"count":207,"type":"SCALAR"},{"bufferView":2,"byteOffset":1724,"componentType":5123,"count":630,"type":"SCALAR"},{"bufferView":2,"byteOffset":2984,"componentType":5123,"count":195,"type":"SCALAR"},{"bufferView":2,"byteOffset":3376,"componentType":5123,"count":186,"type":"SCALAR"},{"bufferView":2,"byteOffset":3748,"componentType":5123,"count":87,"type":"SCALAR"},{"bufferView":2,"byteOffset":3924,"componentType":5123,"count":84,"type":"SCALAR"},{"bufferView":2,"byteOffset":4092,"componentType":5123,"count":1587,"type":"SCALAR"},{"bufferView":2,"byteOffset":7268,"componentType":5123,"count":87,"type":"SCALAR"},{"bufferView":2,"byteOffset":7444,"componentType":5123,"count":4572,"type":"SCALAR"},{"bufferView":2,"byteOffset":16588,"componentType":5123,"count":6,"type":"SCALAR"},{"bufferView":2,"byteOffset":16600,"componentType":5123,"count":54,"type":"SCALAR"},{"bufferView":2,"byteOffset":16708,"componentType":5123,"count":6,"type":"SCALAR"},{"bufferView":2,"byteOffset":16720,"componentType":5123,"count":6,"type":"SCALAR"},{"bufferView":2,"byteOffset":16732,"componentType":5123,"count":30,"type":"SCALAR"},{"bufferView":2,"byteOffset":16792,"componentType":5123,"count":30,"type":"SCALAR"},{"bufferView":2,"byteOffset":16852,"componentType":5123,"count":6,"type":"SCALAR"},{"bufferView":2,"byteOffset":16864,"componentType":5123,"count":48,"type":"SCALAR"},{"bufferView":2,"byteOffset":16960,"componentType":5123,"count":6,"type":"SCALAR"},{"bufferView":2,"byteOffset":16972,"componentType":5123,"count":6,"type":"SCALAR"},{"bufferView":2,"byteOffset":16984,"componentType":5123,"count":27,"type":"SCALAR"},{"bufferView":2,"byteOffset":17040,"componentType":5123,"count":27,"type":"SCALAR"},{"bufferView":2,"byteOffset":17096,"componentType":5123,"count":6,"type":"SCALAR"},{"bufferView":2,"byteOffset":17108,"componentType":5123,"count":48,"type":"SCALAR"},{"bufferView":2,"byteOffset":17204,"componentType":5123,"count":6,"type":"SCALAR"},{"bufferView":2,"byteOffset":17216,"componentType":5123,"count":6,"type":"SCALAR"},{"bufferView":2,"byteOffset":17228,"componentType":5123,"count":27,"type":"SCALAR"},{"bufferView":2,"byteOffset":17284,"componentType":5123,"count":27,"type":"SCALAR"},{"bufferView":2,"byteOffset":17340,"componentType":5123,"count":186,"type":"SCALAR"},{"bufferView":2,"byteOffset":17712,"componentType":5123,"count":87,"type":"SCALAR"},{"bufferView":2,"byteOffset":17888,"componentType":5123,"count":87,"type":"SCALAR"},{"bufferView":2,"byteOffset":18064,"componentType":5123,"count":6,"type":"SCALAR"},{"bufferView":2,"byteOffset":18076,"componentType":5123,"count":6,"type":"SCALAR"},{"bufferView":2,"byteOffset":18088,"componentType":5123,"count":6,"type":"SCALAR"},{"bufferView":2,"byteOffset":18100,"componentType":5123,"count":6,"type":"SCALAR"},{"bufferView":2,"byteOffset":18112,"componentType":5123,"count":6,"type":"SCALAR"},{"bufferView":2,"byteOffset":18124,"componentType":5123,"count":6,"type":"SCALAR"}],"asset":{"generator":"Open CASCADE Technology 7.6 [dev.opencascade.org]","version":"2.0"},"bufferViews":[{"buffer":0,"byteLength":23772,"byteOffset":0,"byteStride":12,"target":34962},{"buffer":0,"byteLength":23772,"byteOffset":23772,"byteStride":12,"target":34962},{"buffer":0,"byteLength":18136,"byteOffset":47544,"target":34963}],"buffers":[{"byteLength":65680,"uri":"Thruster_U92.bin"}],"materials":[{"name":"mat_0","pbrMetallicRoughness":{"baseColorFactor":[0.0,0.0,0.0,1.0]},"doubleSided":true},{"name":"mat_1","pbrMetallicRoughness":{"baseColorFactor":[1.0,0.0,0.0,1.0]},"doubleSided":true}],"meshes":[{"name":"Case001","primitives":[{"attributes":{"NORMAL":37,"POSITION":0},"indices":74,"material":0,"mode":4},{"attributes":{"NORMAL":38,"POSITION":1},"indices":75,"material":0,"mode":4},{"attributes":{"NORMAL":39,"POSITION":2},"indices":76,"material":0,"mode":4},{"attributes":{"NORMAL":40,"POSITION":3},"indices":77,"material":0,"mode":4}]},{"name":"Motor","primitives":[{"attributes":{"NORMAL":41,"POSITION":4},"indices":78,"material":0,"mode":4},{"attributes":{"NORMAL":42,"POSITION":5},"indices":79,"material":0,"mode":4},{"attributes":{"NORMAL":43,"POSITION":6},"indices":80,"material":0,"mode":4},{"attributes":{"NORMAL":44,"POSITION":7},"indices":81,"material":0,"mode":4}]},{"name":"Cover001","primitives":[{"attributes":{"NORMAL":45,"POSITION":8},"indices":82,"material":0,"mode":4},{"attributes":{"NORMAL":46,"POSITION":9},"indices":83,"material":0,"mode":4}]},{"name":"Blade001","primitives":[{"attributes":{"NORMAL":47,"POSITION":10},"indices":84,"material":1,"mode":4},{"attributes":{"NORMAL":48,"POSITION":11},"indices":85,"material":1,"mode":4},{"attributes":{"NORMAL":49,"POSITION":12},"indices":86,"material":1,"mode":4},{"attributes":{"NORMAL":50,"POSITION":13},"indices":87,"material":1,"mode":4},{"attributes":{"NORMAL":51,"POSITION":14},"indices":88,"material":1,"mode":4},{"attributes":{"NORMAL":52,"POSITION":15},"indices":89,"material":1,"mode":4}]},{"name":"Blade002","primitives":[{"attributes":{"NORMAL":53,"POSITION":16},"indices":90,"material":1,"mode":4},{"attributes":{"NORMAL":54,"POSITION":17},"indices":91,"material":1,"mode":4},{"attributes":{"NORMAL":55,"POSITION":18},"indices":92,"material":1,"mode":4},{"attributes":{"NORMAL":56,"POSITION":19},"indices":93,"material":1,"mode":4},{"attributes":{"NORMAL":57,"POSITION":20},"indices":94,"material":1,"mode":4},{"attributes":{"NORMAL":58,"POSITION":21},"indices":95,"material":1,"mode":4}]},{"name":"Blade003","primitives":[{"attributes":{"NORMAL":59,"POSITION":22},"indices":96,"material":1,"mode":4},{"attributes":{"NORMAL":60,"POSITION":23},"indices":97,"material":1,"mode":4},{"attributes":{"NORMAL":61,"POSITION":24},"indices":98,"material":1,"mode":4},{"attributes":{"NORMAL":62,"POSITION":25},"indices":99,"material":1,"mode":4},{"attributes":{"NORMAL":63,"POSITION":26},"indices":100,"material":1,"mode":4},{"attributes":{"NORMAL":64,"POSITION":27},"indices":101,"material":1,"mode":4}]},{"name":"Hub001","primitives":[{"attributes":{"NORMAL":65,"POSITION":28},"indices":102,"material":1,"mode":4},{"attributes":{"NORMAL":66,"POSITION":29},"indices":103,"material":1,"mode":4},{"attributes":{"NORMAL":67,"POSITION":30},"indices":104,"material":1,"mode":4}]},{"name":"MountingBracket","primitives":[{"attributes":{"NORMAL":68,"POSITION":31},"indices":105,"material":0,"mode":4},{"attributes":{"NORMAL":69,"POSITION":32},"indices":106,"material":0,"mode":4},{"attributes":{"NORMAL":70,"POSITION":33},"indices":107,"material":0,"mode":4},{"attributes":{"NORMAL":71,"POSITION":34},"indices":108,"material":0,"mode":4},{"attributes":{"NORMAL":72,"POSITION":35},"indices":109,"material":0,"mode":4},{"attributes":{"NORMAL":73,"POSITION":36},"indices":110,"material":0,"mode":4}]}],"nodes":[{"children":[1,2,3,4],"name":"U92(ApisQueen)"},{"mesh":0,"name":"Case001"},{"mesh":1,"name":"Motor"},{"translation":[0.0,0.0,-0.0625],"mesh":2,"name":"Cover001"},{"children":[5,6,7,8,9],"translation":[0.0,0.0,-0.051500000000000007],"name":"Propeller"},{"rotation":[0.0,0.2588190451026266,0.0,0.9659258262890399],"translation":[9.034000000000002e-15,0.0,0.011],"mesh":3,"name":"Blade001"},{"rotation":[-0.2241439958881567,-0.12940958087627969,0.8365163171721919,-0.48296281491372458],"translation":[-0.000001348530175164,-0.0000012518594739959999,0.0109951171875],"mesh":4,"name":"Blade002"},{"rotation":[0.22414390817908165,-0.12940956695535076,0.836516323508855,0.4829628483743496],"translation":[-0.002068943977356,0.003583715438843,0.01087220096588],"mesh":5,"name":"Blade003"},{"translation":[0.0,0.0,0.024],"mesh":6,"name":"Hub001"},{"translation":[0.0,0.06,0.0205],"mesh":7,"name":"MountingBracket"}],"scene":0,"scenes":[{"nodes":[0]}]}